<?xml version="1.0" standalone="no"?>
<!DOCTYPE svg PUBLIC "-//W3C//DTD SVG 1.1//EN" "http://www.w3.org/Graphics/SVG/1.1/DTD/svg11.dtd" >
<svg xmlns="http://www.w3.org/2000/svg" xmlns:xlink="http://www.w3.org/1999/xlink" version="1.1">
<metadata>
Created by FontForge 20170910 at Fri Jun  8 15:06:00 2018
 By Jimmy Wärting
Pangram Pangram\(R\)
</metadata>
<defs>
<font id="GoshaSans-Bold" horiz-adv-x="618" >
  <font-face 
    font-family="Gosha Sans"
    font-weight="700"
    font-stretch="normal"
    units-per-em="1000"
    panose-1="0 0 8 0 0 0 0 0 0 0"
    ascent="800"
    descent="-200"
    x-height="515"
    cap-height="680"
    bbox="-720 -218 1673 1020"
    underline-thickness="50"
    underline-position="-100"
    stemh="130"
    stemv="130"
    unicode-range="U+0020-25CA"
  />
<missing-glyph horiz-adv-x="450" 
d="M369 700v-900h-285v900h285zM300 640h-149v-30h59v-33h-60v-30h150v30h-60v33h60v30zM240 524h-90v-94h150v31h-60v63zM210 493v-32h-30v32h30zM300 406h-150v-30h60v-33h-60v-30h90v63h60v30zM300 352h-30v-60h-120v-30h150v90zM300 242h-90v-50h30v20h30v-42h-90v72
h-30v-102h150v102zM300 86h-150v-102h150v102zM270 57v-43h-90v43h90zM300 -36h-150v-30h63l-63 -42v-30h150v30h-92l63 42h29v30z" />
    <glyph glyph-name="f_f" unicode="ff" horiz-adv-x="809" 
d="M749 570h-142v-70h142v-130h-142v-370h-130v370h-217v-370h-130v370h-80v130h80v200h272v-130h-142v-70h217v200h272v-130z" />
    <glyph glyph-name="f_f_i" unicode="ffi" horiz-adv-x="964" 
d="M567 515h327v-515h-130v385h-197v-385h-130v385h-177v-385h-130v385h-80v130h80v185h242v-95h-112v-90h177v185h252v-100h-122v-85zM764 700h130v-100h-130v100z" />
    <glyph glyph-name="f_f_l" unicode="ffl" horiz-adv-x="979" 
d="M909 700v-700h-130v570h-202v-70h132v-130h-132v-370h-130v370h-187v-370h-130v370h-80v130h80v200h252v-130h-122v-70h187v200h462z" />
    <glyph glyph-name=".notdef" horiz-adv-x="450" 
d="M369 700v-900h-285v900h285zM300 640h-149v-30h59v-33h-60v-30h150v30h-60v33h60v30zM240 524h-90v-94h150v31h-60v63zM210 493v-32h-30v32h30zM300 406h-150v-30h60v-33h-60v-30h90v63h60v30zM300 352h-30v-60h-120v-30h150v90zM300 242h-90v-50h30v20h30v-42h-90v72
h-30v-102h150v102zM300 86h-150v-102h150v102zM270 57v-43h-90v43h90zM300 -36h-150v-30h63l-63 -42v-30h150v30h-92l63 42h29v30z" />
    <glyph glyph-name="A" unicode="A" horiz-adv-x="736" 
d="M538 0l-39 130h-261l-39 -130h-139l208 680h201l207 -680h-138zM277 260h183l-84 277h-16z" />
    <glyph glyph-name="Aacute" unicode="&#xc1;" horiz-adv-x="736" 
d="M528 935l-111 -150h-99l91 150h119zM538 0l-39 130h-261l-39 -130h-139l208 680h201l207 -680h-138zM277 260h183l-84 277h-16z" />
    <glyph glyph-name="Abreve" unicode="&#x102;" horiz-adv-x="736" 
d="M368 780c-80 0 -150 30 -150 150h90c0 -50 25 -60 60 -60s60 10 60 60h90c0 -118 -70 -150 -150 -150zM538 0l-39 130h-261l-39 -130h-139l208 680h201l207 -680h-138zM277 260h183l-84 277h-16z" />
    <glyph glyph-name="Acircumflex" unicode="&#xc2;" horiz-adv-x="736" 
d="M365 880l-62 -100h-115l130 170h100l130 -170h-115l-62 100h-6zM538 0l-39 130h-261l-39 -130h-139l208 680h201l207 -680h-138zM277 260h183l-84 277h-16z" />
    <glyph glyph-name="Adieresis" unicode="&#xc4;" horiz-adv-x="736" 
d="M332 904v-114h-113v114h113zM522 904v-114h-113v114h113zM538 0l-39 130h-261l-39 -130h-139l208 680h201l207 -680h-138zM277 260h183l-84 277h-16z" />
    <glyph glyph-name="Agrave" unicode="&#xc0;" horiz-adv-x="736" 
d="M418 790h-99l-111 150h119zM538 0l-39 130h-261l-39 -130h-139l208 680h201l207 -680h-138zM277 260h183l-84 277h-16z" />
    <glyph glyph-name="Amacron" unicode="&#x100;" horiz-adv-x="736" 
d="M524 900v-90h-312v90h312zM538 0l-39 130h-261l-39 -130h-139l208 680h201l207 -680h-138zM277 260h183l-84 277h-16z" />
    <glyph glyph-name="Aogonek" unicode="&#x104;" horiz-adv-x="736" 
d="M676 0c-43 -52 -63 -115 68 -100v-70c-204 -30 -229 101 -138 170h-68l-39 130h-261l-39 -130h-139l208 680h201zM277 260h183l-84 277h-16z" />
    <glyph glyph-name="Aring" unicode="&#xc5;" horiz-adv-x="736" 
d="M368 770c-88 0 -135 57 -135 125s47 125 135 125c87 0 135 -57 135 -125s-48 -125 -135 -125zM368 930c-33 0 -45 -12 -45 -35s12 -35 45 -35s45 12 45 35s-12 35 -45 35zM538 0l-39 130h-261l-39 -130h-139l208 680h201l207 -680h-138zM277 260h183l-84 277h-16z" />
    <glyph glyph-name="Atilde" unicode="&#xc3;" horiz-adv-x="736" 
d="M304 860c-31 0 -38 -20 -38 -60h-90c0 60 22 150 120 150c81 0 88 -60 137 -60c30 0 37 20 37 60h90c0 -60 -17 -150 -115 -150c-81 0 -93 60 -141 60zM538 0l-39 130h-261l-39 -130h-139l208 680h201l207 -680h-138zM277 260h183l-84 277h-16z" />
    <glyph glyph-name="AE" unicode="&#xc6;" horiz-adv-x="980" 
d="M925 550h-328v-140h258v-130h-258v-150h328v-130h-448v140h-236l-44 -140h-137l214 680h651v-130zM477 270v280h-108l-88 -280h196z" />
    <glyph glyph-name="B" unicode="B" horiz-adv-x="623" 
d="M407 355c117 -7 156 -72 156 -160c0 -102 -50 -195 -229 -195h-264v680h264c152 0 209 -79 209 -166c0 -70 -36 -136 -136 -143v-16zM200 550v-125h129c60 0 84 15 84 63c0 47 -24 62 -84 62h-129zM334 140c70 0 99 15 99 78c0 62 -29 77 -99 77h-134v-155h134z" />
    <glyph glyph-name="C" unicode="C" horiz-adv-x="699" 
d="M50 340c0 170 84 340 307 340c191 0 286 -119 292 -259h-130c-17 93 -51 129 -162 129c-119 0 -177 -44 -177 -210s58 -210 177 -210c111 0 145 36 162 129h130c-6 -140 -101 -259 -292 -259c-223 0 -307 170 -307 340z" />
    <glyph glyph-name="Cacute" unicode="&#x106;" horiz-adv-x="699" 
d="M391 935h119l-111 -150h-99zM50 340c0 170 84 340 307 340c191 0 286 -119 292 -259h-130c-17 93 -51 129 -162 129c-119 0 -177 -44 -177 -210s58 -210 177 -210c111 0 145 36 162 129h130c-6 -140 -101 -259 -292 -259c-223 0 -307 170 -307 340z" />
    <glyph glyph-name="Ccaron" unicode="&#x10c;" horiz-adv-x="699" 
d="M300 790l-130 170h115l62 -100h6l62 100h115l-130 -170h-100zM357 130c111 0 145 36 162 129h130c-6 -140 -101 -259 -292 -259c-223 0 -307 170 -307 340s84 340 307 340c191 0 286 -119 292 -259h-130c-17 93 -51 129 -162 129c-119 0 -177 -44 -177 -210
s58 -210 177 -210z" />
    <glyph glyph-name="Ccedilla" unicode="&#xc7;" horiz-adv-x="699" 
d="M357 130c111 0 145 36 162 129h130c-6 -136 -95 -252 -275 -259l-7 -30c117 -24 80 -156 -94 -130v70c97 -25 112 54 28 60l20 32c-196 17 -271 178 -271 338c0 170 84 340 307 340c191 0 286 -119 292 -259h-130c-17 93 -51 129 -162 129c-119 0 -177 -44 -177 -210
s58 -210 177 -210z" />
    <glyph glyph-name="Cdotaccent" unicode="&#x10a;" horiz-adv-x="699" 
d="M296 904h113v-114h-113v114zM50 340c0 170 84 340 307 340c191 0 286 -119 292 -259h-130c-17 93 -51 129 -162 129c-119 0 -177 -44 -177 -210s58 -210 177 -210c111 0 145 36 162 129h130c-6 -140 -101 -259 -292 -259c-223 0 -307 170 -307 340z" />
    <glyph glyph-name="D" unicode="D" horiz-adv-x="689" 
d="M309 680c226 0 320 -115 320 -340c0 -224 -94 -340 -320 -340h-239v680h239zM309 130c156 0 190 49 190 210c0 165 -34 210 -190 210h-109v-420h109z" />
    <glyph glyph-name="Eth" unicode="&#xd0;" horiz-adv-x="709" 
d="M339 680c226 0 320 -115 320 -340c0 -224 -94 -340 -320 -340h-239v278h-70v105h70v297h239zM339 130c156 0 190 49 190 210c0 165 -34 210 -190 210h-109v-167h182v-105h-182v-148h109z" />
    <glyph glyph-name="Dcaron" unicode="&#x10e;" horiz-adv-x="689" 
d="M260 790l-130 170h115l62 -100h6l62 100h115l-130 -170h-100zM309 680c226 0 320 -115 320 -340c0 -224 -94 -340 -320 -340h-239v680h239zM309 130c156 0 190 49 190 210c0 165 -34 210 -190 210h-109v-420h109z" />
    <glyph glyph-name="Dcroat" unicode="&#x110;" horiz-adv-x="709" 
d="M339 680c226 0 320 -115 320 -340c0 -224 -94 -340 -320 -340h-239v278h-70v105h70v297h239zM339 130c156 0 190 49 190 210c0 165 -34 210 -190 210h-109v-167h182v-105h-182v-148h109z" />
    <glyph glyph-name="E" unicode="E" horiz-adv-x="578" 
d="M518 550h-328v-140h258v-130h-258v-150h328v-130h-448v680h448v-130z" />
    <glyph glyph-name="Eacute" unicode="&#xc9;" horiz-adv-x="578" 
d="M454 935l-111 -150h-99l91 150h119zM518 550h-328v-140h258v-130h-258v-150h328v-130h-448v680h448v-130z" />
    <glyph glyph-name="Ecaron" unicode="&#x11a;" horiz-adv-x="578" 
d="M244 790l-130 170h115l62 -100h6l62 100h115l-130 -170h-100zM518 550h-328v-140h258v-130h-258v-150h328v-130h-448v680h448v-130z" />
    <glyph glyph-name="Ecircumflex" unicode="&#xca;" horiz-adv-x="578" 
d="M291 880l-62 -100h-115l130 170h100l130 -170h-115l-62 100h-6zM518 550h-328v-140h258v-130h-258v-150h328v-130h-448v680h448v-130z" />
    <glyph glyph-name="Edieresis" unicode="&#xcb;" horiz-adv-x="578" 
d="M258 904v-114h-113v114h113zM448 904v-114h-113v114h113zM518 550h-328v-140h258v-130h-258v-150h328v-130h-448v680h448v-130z" />
    <glyph glyph-name="Edotaccent" unicode="&#x116;" horiz-adv-x="578" 
d="M353 904v-114h-113v114h113zM518 550h-328v-140h258v-130h-258v-150h328v-130h-448v680h448v-130z" />
    <glyph glyph-name="Egrave" unicode="&#xc8;" horiz-adv-x="578" 
d="M344 790h-99l-111 150h119zM518 550h-328v-140h258v-130h-258v-150h328v-130h-448v680h448v-130z" />
    <glyph glyph-name="Emacron" unicode="&#x112;" horiz-adv-x="578" 
d="M450 900v-90h-312v90h312zM518 550h-328v-140h258v-130h-258v-150h328v-130h-448v680h448v-130z" />
    <glyph glyph-name="Eogonek" unicode="&#x118;" horiz-adv-x="578" 
d="M518 0c-43 -52 -63 -115 68 -100v-70c-204 -30 -229 101 -138 170h-378v680h448v-130h-328v-140h258v-130h-258v-150h328v-130z" />
    <glyph glyph-name="F" unicode="F" horiz-adv-x="573" 
d="M513 550h-318v-175h259v-130h-259v-245h-130v680h448v-130z" />
    <glyph glyph-name="G" unicode="G" horiz-adv-x="729" 
d="M307 359h362v-359h-130v95h-16c-18 -39 -62 -95 -181 -95c-198 0 -292 155 -292 340s94 340 310 340c168 0 274 -99 284 -229h-129c-13 63 -57 99 -155 99c-122 0 -180 -49 -180 -210s63 -210 192 -210c96 0 153 41 167 119h-232v110z" />
    <glyph glyph-name="Gbreve" unicode="&#x11e;" horiz-adv-x="729" 
d="M359 780c-80 0 -150 30 -150 150h90c0 -50 25 -60 60 -60s60 10 60 60h90c0 -118 -70 -150 -150 -150zM307 359h362v-359h-130v95h-16c-18 -39 -62 -95 -181 -95c-198 0 -292 155 -292 340s94 340 310 340c168 0 274 -99 284 -229h-129c-13 63 -57 99 -155 99
c-122 0 -180 -49 -180 -210s63 -210 192 -210c96 0 153 41 167 119h-232v110z" />
    <glyph glyph-name="Gcommaaccent" unicode="&#x122;" horiz-adv-x="729" 
d="M307 359h362v-359h-130v95h-16c-18 -39 -62 -95 -181 -95c-198 0 -292 155 -292 340s94 340 310 340c168 0 274 -99 284 -229h-129c-13 63 -57 99 -155 99c-122 0 -180 -49 -180 -210s63 -210 192 -210c96 0 153 41 167 119h-232v110zM309 -120v80h100v-80l-39 -65h-61
l35 65h-35z" />
    <glyph glyph-name="Gdotaccent" unicode="&#x120;" horiz-adv-x="729" 
d="M418 904v-114h-113v114h113zM307 359h362v-359h-130v95h-16c-18 -39 -62 -95 -181 -95c-198 0 -292 155 -292 340s94 340 310 340c168 0 274 -99 284 -229h-129c-13 63 -57 99 -155 99c-122 0 -180 -49 -180 -210s63 -210 192 -210c96 0 153 41 167 119h-232v110z" />
    <glyph glyph-name="H" unicode="H" horiz-adv-x="699" 
d="M499 680h130v-680h-130v265h-299v-265h-130v680h130v-285h299v285z" />
    <glyph glyph-name="Hbar" unicode="&#x126;" horiz-adv-x="780" 
d="M720 595v-110h-50v-485h-130v265h-299v-265h-130v485h-51v110h51v85h130v-85h299v85h130v-85h50zM540 395v90h-299v-90h299z" />
    <glyph glyph-name="I" unicode="I" horiz-adv-x="270" 
d="M70 0v680h130v-680h-130z" />
    <glyph glyph-name="Iacute" unicode="&#xcd;" horiz-adv-x="270" 
d="M176 935h119l-111 -150h-99zM70 0v680h130v-680h-130z" />
    <glyph glyph-name="Icircumflex" unicode="&#xce;" horiz-adv-x="270" 
d="M185 950l130 -170h-115l-62 100h-6l-62 -100h-115l130 170h100zM70 0v680h130v-680h-130z" />
    <glyph glyph-name="Idieresis" unicode="&#xcf;" horiz-adv-x="270" 
d="M-15 904h114v-114h-114v114zM176 904h113v-114h-113v114zM70 0v680h130v-680h-130z" />
    <glyph glyph-name="Idotaccent" unicode="&#x130;" horiz-adv-x="270" 
d="M81 904h113v-114h-113v114zM70 0v680h130v-680h-130z" />
    <glyph glyph-name="Igrave" unicode="&#xcc;" horiz-adv-x="270" 
d="M94 940l91 -150h-99l-111 150h119zM70 0v680h130v-680h-130z" />
    <glyph glyph-name="Imacron" unicode="&#x12a;" horiz-adv-x="270" 
d="M-21 810v90h312v-90h-312zM70 0v680h130v-680h-130z" />
    <glyph glyph-name="Iogonek" unicode="&#x12e;" horiz-adv-x="270" 
d="M200 0c-43 -52 -63 -115 68 -100v-70c-204 -30 -229 101 -138 170h-60v680h130v-680z" />
    <glyph glyph-name="J" unicode="J" horiz-adv-x="490" 
d="M290 680h130v-680h-360v130h230v550z" />
    <glyph glyph-name="K" unicode="K" horiz-adv-x="685" 
d="M625 680l-229 -340l229 -340h-156l-184 275h-85v-275h-130v680h130v-275h85l184 275h156z" />
    <glyph glyph-name="Kcommaaccent" unicode="&#x136;" horiz-adv-x="685" 
d="M625 680l-229 -340l229 -340h-156l-184 275h-85v-275h-130v680h130v-275h85l184 275h156zM270 -120v80h100v-80l-39 -65h-61l35 65h-35z" />
    <glyph glyph-name="L" unicode="L" horiz-adv-x="518" 
d="M200 130h258v-130h-388v680h130v-550z" />
    <glyph glyph-name="Lacute" unicode="&#x139;" horiz-adv-x="518" 
d="M280 935l-111 -150h-99l91 150h119zM200 130h258v-130h-388v680h130v-550z" />
    <glyph glyph-name="Lcaron" unicode="&#x13d;" horiz-adv-x="498" 
d="M295 440l35 130h-40v130h130v-130l-54 -130h-71zM200 130h258v-130h-388v680h130v-550z" />
    <glyph glyph-name="Lcommaaccent" unicode="&#x13b;" horiz-adv-x="518" 
d="M200 130h258v-130h-388v680h130v-550zM209 -120v80h100v-80l-39 -65h-61l35 65h-35z" />
    <glyph glyph-name="Lslash" unicode="&#x141;" horiz-adv-x="574" 
d="M266 130h258v-130h-388v247l-76 -41v123l76 41v310h130v-241l106 57v-123l-106 -57v-186z" />
    <glyph glyph-name="M" unicode="M" horiz-adv-x="904" 
d="M704 680h130v-680h-130v369h-16l-164 -318h-144l-164 318h-16v-369h-130v680h130l244 -473h16z" />
    <glyph glyph-name="N" unicode="N" horiz-adv-x="710" 
d="M510 680h130v-680h-130l-294 428h-16v-428h-130v680h130l294 -428h16v428z" />
    <glyph glyph-name="Nacute" unicode="&#x143;" horiz-adv-x="710" 
d="M515 935l-111 -150h-99l91 150h119zM510 680h130v-680h-130l-294 428h-16v-428h-130v680h130l294 -428h16v428z" />
    <glyph glyph-name="Ncaron" unicode="&#x147;" horiz-adv-x="710" 
d="M305 790l-130 170h115l62 -100h6l62 100h115l-130 -170h-100zM510 680h130v-680h-130l-294 428h-16v-428h-130v680h130l294 -428h16v428z" />
    <glyph glyph-name="Ncommaaccent" unicode="&#x145;" horiz-adv-x="710" 
d="M510 680h130v-680h-130l-294 428h-16v-428h-130v680h130l294 -428h16v428zM305 -120v80h100v-80l-39 -65h-61l35 65h-35z" />
    <glyph glyph-name="Eng" unicode="&#x14a;" horiz-adv-x="710" 
d="M510 680h130v-855h-300v130h170v45l-294 428h-16v-428h-130v680h130l294 -428h16v428z" />
    <glyph glyph-name="Ntilde" unicode="&#xd1;" horiz-adv-x="710" 
d="M291 860c-31 0 -38 -20 -38 -60h-90c0 60 22 150 120 150c81 0 88 -60 137 -60c30 0 37 20 37 60h90c0 -60 -17 -150 -115 -150c-81 0 -93 60 -141 60zM510 680h130v-680h-130l-294 428h-16v-428h-130v680h130l294 -428h16v428z" />
    <glyph glyph-name="O" unicode="O" horiz-adv-x="764" 
d="M382 0c-208 0 -332 150 -332 340s124 340 332 340s332 -150 332 -340s-124 -340 -332 -340zM382 130c116 0 202 52 202 210c0 159 -86 210 -202 210s-202 -51 -202 -210c0 -158 86 -210 202 -210z" />
    <glyph glyph-name="Oacute" unicode="&#xd3;" horiz-adv-x="764" 
d="M423 935h119l-111 -150h-99zM382 0c-208 0 -332 150 -332 340s124 340 332 340s332 -150 332 -340s-124 -340 -332 -340zM382 130c116 0 202 52 202 210c0 159 -86 210 -202 210s-202 -51 -202 -210c0 -158 86 -210 202 -210z" />
    <glyph glyph-name="Ocircumflex" unicode="&#xd4;" horiz-adv-x="764" 
d="M379 880l-62 -100h-115l130 170h100l130 -170h-115l-62 100h-6zM382 680c208 0 332 -150 332 -340s-124 -340 -332 -340s-332 150 -332 340s124 340 332 340zM382 130c116 0 202 52 202 210c0 159 -86 210 -202 210s-202 -51 -202 -210c0 -158 86 -210 202 -210z" />
    <glyph glyph-name="Odieresis" unicode="&#xd6;" horiz-adv-x="764" 
d="M233 904h113v-114h-113v114zM423 904h113v-114h-113v114zM382 0c-208 0 -332 150 -332 340s124 340 332 340s332 -150 332 -340s-124 -340 -332 -340zM382 130c116 0 202 52 202 210c0 159 -86 210 -202 210s-202 -51 -202 -210c0 -158 86 -210 202 -210z" />
    <glyph glyph-name="Ograve" unicode="&#xd2;" horiz-adv-x="764" 
d="M341 940l91 -150h-99l-111 150h119zM382 0c-208 0 -332 150 -332 340s124 340 332 340s332 -150 332 -340s-124 -340 -332 -340zM382 130c116 0 202 52 202 210c0 159 -86 210 -202 210s-202 -51 -202 -210c0 -158 86 -210 202 -210z" />
    <glyph glyph-name="Ohungarumlaut" unicode="&#x150;" horiz-adv-x="764" 
d="M333 940h119l-111 -150h-99zM513 940h119l-111 -150h-99zM382 0c-208 0 -332 150 -332 340s124 340 332 340s332 -150 332 -340s-124 -340 -332 -340zM382 130c116 0 202 52 202 210c0 159 -86 210 -202 210s-202 -51 -202 -210c0 -158 86 -210 202 -210z" />
    <glyph glyph-name="Omacron" unicode="&#x14c;" horiz-adv-x="764" 
d="M226 810v90h312v-90h-312zM382 0c-208 0 -332 150 -332 340s124 340 332 340s332 -150 332 -340s-124 -340 -332 -340zM382 130c116 0 202 52 202 210c0 159 -86 210 -202 210s-202 -51 -202 -210c0 -158 86 -210 202 -210z" />
    <glyph glyph-name="Oslash" unicode="&#xd8;" horiz-adv-x="786" 
d="M725 610l-61 -63c40 -57 61 -128 61 -207c0 -190 -124 -340 -332 -340c-80 0 -148 22 -201 61l-59 -61l-72 70l61 63c-40 57 -61 128 -61 207c0 190 124 340 332 340c80 0 148 -22 201 -61l59 61zM191 340c0 -47 8 -84 21 -114l293 301c-32 16 -70 23 -112 23
c-116 0 -202 -51 -202 -210zM595 340c0 47 -8 85 -21 114l-293 -301c32 -16 70 -23 112 -23c116 0 202 52 202 210z" />
    <glyph glyph-name="Otilde" unicode="&#xd5;" horiz-adv-x="764" 
d="M190 800c0 60 22 150 120 150c81 0 88 -60 137 -60c30 0 37 20 37 60h90c0 -60 -17 -150 -115 -150c-81 0 -93 60 -141 60c-31 0 -38 -20 -38 -60h-90zM382 0c-208 0 -332 150 -332 340s124 340 332 340s332 -150 332 -340s-124 -340 -332 -340zM382 130
c116 0 202 52 202 210c0 159 -86 210 -202 210s-202 -51 -202 -210c0 -158 86 -210 202 -210z" />
    <glyph glyph-name="OE" unicode="&#x152;" horiz-adv-x="1107" 
d="M1057 550h-328v-140h258v-130h-258v-150h328v-130h-448v82c-56 -51 -133 -82 -227 -82c-208 0 -332 150 -332 340s124 340 332 340c94 0 171 -31 227 -82v82h448v-130zM382 130c116 0 202 52 202 210c0 159 -86 210 -202 210s-202 -51 -202 -210c0 -158 86 -210 202 -210
z" />
    <glyph glyph-name="P" unicode="P" horiz-adv-x="659" 
d="M319 680c216 0 280 -95 280 -238s-64 -239 -280 -239h-119v-203h-130v680h249zM342 333c101 0 127 29 127 109c0 83 -26 108 -127 108h-142v-217h142z" />
    <glyph glyph-name="Thorn" unicode="&#xde;" horiz-adv-x="659" 
d="M319 600c216 0 280 -95 280 -238s-64 -239 -280 -239h-119v-123h-130v680h130v-80h119zM342 253c101 0 127 29 127 109c0 83 -26 108 -127 108h-142v-217h142z" />
    <glyph glyph-name="Q" unicode="Q" horiz-adv-x="779" 
d="M719 10l-104 -78l-75 103c-45 -23 -98 -35 -158 -35c-208 0 -332 150 -332 340s124 340 332 340s332 -150 332 -340c0 -86 -26 -164 -73 -224zM382 130c29 0 56 3 80 10l-89 122l104 78l85 -116c14 30 22 68 22 116c0 159 -86 210 -202 210s-202 -51 -202 -210
c0 -158 86 -210 202 -210z" />
    <glyph glyph-name="R" unicode="R" horiz-adv-x="659" 
d="M395 270h204v-270h-130v208h-269v-208h-130v680h239c216 0 280 -92 280 -215c0 -110 -54 -173 -194 -179v-16zM200 338h109c116 0 150 22 150 107c0 88 -34 105 -150 105h-109v-212z" />
    <glyph glyph-name="Racute" unicode="&#x154;" horiz-adv-x="659" 
d="M470 935l-111 -150h-99l91 150h119zM395 270h204v-270h-130v208h-269v-208h-130v680h239c216 0 280 -92 280 -215c0 -110 -54 -173 -194 -179v-16zM200 338h109c116 0 150 22 150 107c0 88 -34 105 -150 105h-109v-212z" />
    <glyph glyph-name="Rcaron" unicode="&#x158;" horiz-adv-x="659" 
d="M260 790l-130 170h115l62 -100h6l62 100h115l-130 -170h-100zM395 270h204v-270h-130v208h-269v-208h-130v680h239c216 0 280 -92 280 -215c0 -110 -54 -173 -194 -179v-16zM200 338h109c116 0 150 22 150 107c0 88 -34 105 -150 105h-109v-212z" />
    <glyph glyph-name="Rcommaaccent" unicode="&#x156;" horiz-adv-x="659" 
d="M395 270h204v-270h-130v208h-269v-208h-130v680h239c216 0 280 -92 280 -215c0 -110 -54 -173 -194 -179v-16zM200 338h109c116 0 150 22 150 107c0 88 -34 105 -150 105h-109v-212zM283 -120v80h100v-80l-39 -65h-61l35 65h-35z" />
    <glyph glyph-name="S" unicode="S" horiz-adv-x="694" 
d="M60 89v139c94 -64 213 -98 303 -98c89 0 141 8 141 64c0 58 -56 65 -185 95c-181 41 -249 93 -249 204c0 130 102 187 257 187c81 0 186 -24 253 -57v-132c-100 37 -202 59 -266 59c-65 0 -114 -6 -114 -53c0 -48 52 -59 154 -82c193 -44 280 -79 280 -217
c0 -139 -112 -198 -271 -198c-96 0 -234 36 -303 89z" />
    <glyph glyph-name="Sacute" unicode="&#x15a;" horiz-adv-x="694" 
d="M401 935h119l-111 -150h-99zM60 89v139c94 -64 213 -98 303 -98c89 0 141 8 141 64c0 58 -56 65 -185 95c-181 41 -249 93 -249 204c0 130 102 187 257 187c81 0 186 -24 253 -57v-132c-100 37 -202 59 -266 59c-65 0 -114 -6 -114 -53c0 -48 52 -59 154 -82
c193 -44 280 -79 280 -217c0 -139 -112 -198 -271 -198c-96 0 -234 36 -303 89z" />
    <glyph glyph-name="Scaron" unicode="&#x160;" horiz-adv-x="694" 
d="M310 790l-130 170h115l62 -100h6l62 100h115l-130 -170h-100zM354 415c193 -44 280 -79 280 -217c0 -139 -112 -198 -271 -198c-96 0 -234 36 -303 89v139c94 -64 213 -98 303 -98c89 0 141 8 141 64c0 58 -56 65 -185 95c-181 41 -249 93 -249 204
c0 130 102 187 257 187c81 0 186 -24 253 -57v-132c-100 37 -202 59 -266 59c-65 0 -114 -6 -114 -53c0 -48 52 -59 154 -82z" />
    <glyph glyph-name="Scedilla" unicode="&#x15e;" horiz-adv-x="694" 
d="M634 198c0 -133 -102 -193 -250 -198l-7 -30c117 -24 80 -156 -94 -130v70c97 -25 112 54 28 60l20 31c-93 7 -209 41 -271 88v139c94 -64 213 -98 303 -98c89 0 141 8 141 64c0 58 -56 65 -185 95c-181 41 -249 93 -249 204c0 130 102 187 257 187c81 0 186 -24 253 -57
v-132c-100 37 -202 59 -266 59c-65 0 -114 -6 -114 -53c0 -48 52 -59 154 -82c193 -44 280 -79 280 -217z" />
    <glyph glyph-name="Scommaaccent" unicode="&#x218;" horiz-adv-x="694" 
d="M60 89v139c94 -64 213 -98 303 -98c89 0 141 8 141 64c0 58 -56 65 -185 95c-181 41 -249 93 -249 204c0 130 102 187 257 187c81 0 186 -24 253 -57v-132c-100 37 -202 59 -266 59c-65 0 -114 -6 -114 -53c0 -48 52 -59 154 -82c193 -44 280 -79 280 -217
c0 -139 -112 -198 -271 -198c-96 0 -234 36 -303 89zM310 -40h100v-80l-39 -65h-61l35 65h-35v80z" />
    <glyph glyph-name="T" unicode="T" horiz-adv-x="638" 
d="M578 680v-130h-194v-550h-130v550h-194v130h518z" />
    <glyph glyph-name="Tbar" unicode="&#x166;" horiz-adv-x="638" 
d="M578 550h-194v-155h91v-110h-91v-285h-130v285h-91v110h91v155h-194v130h518v-130z" />
    <glyph glyph-name="Tcaron" unicode="&#x164;" horiz-adv-x="638" 
d="M269 790l-130 170h115l62 -100h6l62 100h115l-130 -170h-100zM578 680v-130h-194v-550h-130v550h-194v130h518z" />
    <glyph glyph-name="uni0162" unicode="&#x162;" horiz-adv-x="638" 
d="M384 0h-41l-7 -30c117 -24 80 -156 -94 -130v70c97 -25 112 54 28 60l19 30h-35v550h-194v130h518v-130h-194v-550z" />
    <glyph glyph-name="uni021A" unicode="&#x21a;" horiz-adv-x="638" 
d="M578 680v-130h-194v-550h-130v550h-194v130h518zM269 -120v80h100v-80l-39 -65h-61l35 65h-35z" />
    <glyph glyph-name="U" unicode="U" horiz-adv-x="698" 
d="M638 250c0 -177 -112 -250 -289 -250s-289 73 -289 250v430h130v-410c0 -105 31 -140 159 -140s159 35 159 140v410h130v-430z" />
    <glyph glyph-name="Uacute" unicode="&#xda;" horiz-adv-x="698" 
d="M390 935h119l-111 -150h-99zM638 250c0 -177 -112 -250 -289 -250s-289 73 -289 250v430h130v-410c0 -105 31 -140 159 -140s159 35 159 140v410h130v-430z" />
    <glyph glyph-name="Ucircumflex" unicode="&#xdb;" horiz-adv-x="698" 
d="M346 880l-62 -100h-115l130 170h100l130 -170h-115l-62 100h-6zM508 680h130v-430c0 -177 -112 -250 -289 -250s-289 73 -289 250v430h130v-410c0 -105 31 -140 159 -140s159 35 159 140v410z" />
    <glyph glyph-name="Udieresis" unicode="&#xdc;" horiz-adv-x="698" 
d="M200 904h113v-114h-113v114zM390 904h113v-114h-113v114zM638 250c0 -177 -112 -250 -289 -250s-289 73 -289 250v430h130v-410c0 -105 31 -140 159 -140s159 35 159 140v410h130v-430z" />
    <glyph glyph-name="Ugrave" unicode="&#xd9;" horiz-adv-x="698" 
d="M308 940l91 -150h-99l-111 150h119zM638 250c0 -177 -112 -250 -289 -250s-289 73 -289 250v430h130v-410c0 -105 31 -140 159 -140s159 35 159 140v410h130v-430z" />
    <glyph glyph-name="Uhungarumlaut" unicode="&#x170;" horiz-adv-x="698" 
d="M300 940h119l-111 -150h-99zM480 940h119l-111 -150h-99zM638 250c0 -177 -112 -250 -289 -250s-289 73 -289 250v430h130v-410c0 -105 31 -140 159 -140s159 35 159 140v410h130v-430z" />
    <glyph glyph-name="Umacron" unicode="&#x16a;" horiz-adv-x="698" 
d="M193 810v90h312v-90h-312zM638 250c0 -177 -112 -250 -289 -250s-289 73 -289 250v430h130v-410c0 -105 31 -140 159 -140s159 35 159 140v410h130v-430z" />
    <glyph glyph-name="Uogonek" unicode="&#x172;" horiz-adv-x="698" 
d="M508 680h130v-430c0 -140 -70 -215 -186 -240h3c-43 -52 -63 -115 68 -100v-70c-195 -29 -226 90 -149 160h-25c-177 0 -289 73 -289 250v430h130v-410c0 -105 31 -140 159 -140s159 35 159 140v410z" />
    <glyph glyph-name="Uring" unicode="&#x16e;" horiz-adv-x="698" 
d="M349 770c-88 0 -135 57 -135 125s47 125 135 125c87 0 135 -57 135 -125s-48 -125 -135 -125zM349 860c33 0 45 12 45 35s-12 35 -45 35s-45 -12 -45 -35s12 -35 45 -35zM638 250c0 -177 -112 -250 -289 -250s-289 73 -289 250v430h130v-410c0 -105 31 -140 159 -140
s159 35 159 140v410h130v-430z" />
    <glyph glyph-name="V" unicode="V" horiz-adv-x="736" 
d="M199 680l161 -537h16l162 537h138l-207 -680h-201l-208 680h139z" />
    <glyph glyph-name="W" unicode="W" horiz-adv-x="1174" 
d="M979 680h135l-174 -680h-214l-131 537h-16l-130 -537h-214l-175 680h135l137 -537h16l131 537h216l131 -537h16z" />
    <glyph glyph-name="Wacute" unicode="&#x1e82;" horiz-adv-x="1174" 
d="M747 935l-111 -150h-99l91 150h119zM979 680h135l-174 -680h-214l-131 537h-16l-130 -537h-214l-175 680h135l137 -537h16l131 537h216l131 -537h16z" />
    <glyph glyph-name="Wcircumflex" unicode="&#x174;" horiz-adv-x="1174" 
d="M584 880l-62 -100h-115l130 170h100l130 -170h-115l-62 100h-6zM979 680h135l-174 -680h-214l-131 537h-16l-130 -537h-214l-175 680h135l137 -537h16l131 537h216l131 -537h16z" />
    <glyph glyph-name="Wdieresis" unicode="&#x1e84;" horiz-adv-x="1174" 
d="M551 904v-114h-113v114h113zM741 904v-114h-113v114h113zM979 680h135l-174 -680h-214l-131 537h-16l-130 -537h-214l-175 680h135l137 -537h16l131 537h216l131 -537h16z" />
    <glyph glyph-name="Wgrave" unicode="&#x1e80;" horiz-adv-x="1174" 
d="M637 790h-99l-111 150h119zM979 680h135l-174 -680h-214l-131 537h-16l-130 -537h-214l-175 680h135l137 -537h16l131 537h216l131 -537h16z" />
    <glyph glyph-name="X" unicode="X" horiz-adv-x="748" 
d="M688 680l-225 -340l225 -340h-157l-154 240h-6l-153 -240h-158l225 340l-225 340h158l153 -240h6l154 240h157z" />
    <glyph glyph-name="Y" unicode="Y" horiz-adv-x="748" 
d="M536 680h152l-249 -414v-266h-128l-2 266l-249 414h152l159 -270h6z" />
    <glyph glyph-name="Yacute" unicode="&#xdd;" horiz-adv-x="748" 
d="M415 935h119l-111 -150h-99zM536 680h152l-249 -414v-266h-128l-2 266l-249 414h152l159 -270h6z" />
    <glyph glyph-name="Ycircumflex" unicode="&#x176;" horiz-adv-x="748" 
d="M371 880l-62 -100h-115l130 170h100l130 -170h-115l-62 100h-6zM536 680h152l-249 -414v-266h-128l-2 266l-249 414h152l159 -270h6z" />
    <glyph glyph-name="Ydieresis" unicode="&#x178;" horiz-adv-x="748" 
d="M225 904h113v-114h-113v114zM415 904h113v-114h-113v114zM536 680h152l-249 -414v-266h-128l-2 266l-249 414h152l159 -270h6z" />
    <glyph glyph-name="Ygrave" unicode="&#x1ef2;" horiz-adv-x="748" 
d="M333 940l91 -150h-99l-111 150h119zM536 680h152l-249 -414v-266h-128l-2 266l-249 414h152l159 -270h6z" />
    <glyph glyph-name="Z" unicode="Z" horiz-adv-x="685" 
d="M625 680v-94l-369 -456h369v-130h-565v94l369 456h-369v130h565z" />
    <glyph glyph-name="Zacute" unicode="&#x179;" horiz-adv-x="685" 
d="M503 935l-111 -150h-99l91 150h119zM625 680v-94l-369 -456h369v-130h-565v94l369 456h-369v130h565z" />
    <glyph glyph-name="Zcaron" unicode="&#x17d;" horiz-adv-x="685" 
d="M293 790l-130 170h115l62 -100h6l62 100h115l-130 -170h-100zM625 680v-94l-369 -456h369v-130h-565v94l369 456h-369v130h565z" />
    <glyph glyph-name="Zdotaccent" unicode="&#x17b;" horiz-adv-x="685" 
d="M402 904v-114h-113v114h113zM625 680v-94l-369 -456h369v-130h-565v94l369 456h-369v130h565z" />
    <glyph glyph-name="A.ss01" horiz-adv-x="736" 
d="M469 680l207 -680h-616l208 680h201zM238 130h261l-123 407h-16z" />
    <glyph glyph-name="S.ss01" horiz-adv-x="694" 
d="M634 550h-433v-134h433v-416h-574v130h444v156h-433v394h563v-130z" />
    <glyph glyph-name="U.ss01" horiz-adv-x="698" 
d="M638 0h-578v680h130v-550h318v550h130v-680z" />
    <glyph glyph-name="a" unicode="a" horiz-adv-x="623" 
d="M498 130h65v-130h-195v50c-25 -26 -64 -50 -139 -50c-122 0 -179 78 -179 170s57 170 179 170c75 0 114 -23 139 -50v95h-260v130h390v-385zM274 118c68 0 94 12 94 52s-26 52 -94 52s-94 -12 -94 -52s26 -52 94 -52z" />
    <glyph glyph-name="aacute" unicode="&#xe1;" horiz-adv-x="623" 
d="M464 770l-111 -150h-99l91 150h119zM498 130h65v-130h-195v50c-25 -26 -64 -50 -139 -50c-122 0 -179 78 -179 170s57 170 179 170c75 0 114 -23 139 -50v95h-260v130h390v-385zM274 118c68 0 94 12 94 52s-26 52 -94 52s-94 -12 -94 -52s26 -52 94 -52z" />
    <glyph glyph-name="abreve" unicode="&#x103;" horiz-adv-x="623" 
d="M304 615c-80 0 -150 30 -150 150h90c0 -50 25 -60 60 -60s60 10 60 60h90c0 -118 -70 -150 -150 -150zM498 130h65v-130h-195v50c-25 -26 -64 -50 -139 -50c-122 0 -179 78 -179 170s57 170 179 170c75 0 114 -23 139 -50v95h-260v130h390v-385zM274 118
c68 0 94 12 94 52s-26 52 -94 52s-94 -12 -94 -52s26 -52 94 -52z" />
    <glyph glyph-name="acircumflex" unicode="&#xe2;" horiz-adv-x="623" 
d="M301 715l-62 -100h-115l130 170h100l130 -170h-115l-62 100h-6zM498 130h65v-130h-195v50c-25 -26 -64 -50 -139 -50c-122 0 -179 78 -179 170s57 170 179 170c75 0 114 -23 139 -50v95h-260v130h390v-385zM274 118c68 0 94 12 94 52s-26 52 -94 52s-94 -12 -94 -52
s26 -52 94 -52z" />
    <glyph glyph-name="adieresis" unicode="&#xe4;" horiz-adv-x="623" 
d="M268 739v-114h-113v114h113zM458 739v-114h-113v114h113zM498 130h65v-130h-195v50c-25 -26 -64 -50 -139 -50c-122 0 -179 78 -179 170s57 170 179 170c75 0 114 -23 139 -50v95h-260v130h390v-385zM274 118c68 0 94 12 94 52s-26 52 -94 52s-94 -12 -94 -52
s26 -52 94 -52z" />
    <glyph glyph-name="agrave" unicode="&#xe0;" horiz-adv-x="623" 
d="M354 625h-99l-111 150h119zM498 130h65v-130h-195v50c-25 -26 -64 -50 -139 -50c-122 0 -179 78 -179 170s57 170 179 170c75 0 114 -23 139 -50v95h-260v130h390v-385zM274 118c68 0 94 12 94 52s-26 52 -94 52s-94 -12 -94 -52s26 -52 94 -52z" />
    <glyph glyph-name="amacron" unicode="&#x101;" horiz-adv-x="623" 
d="M460 735v-90h-312v90h312zM498 130h65v-130h-195v50c-25 -26 -64 -50 -139 -50c-122 0 -179 78 -179 170s57 170 179 170c75 0 114 -23 139 -50v95h-260v130h390v-385zM274 118c68 0 94 12 94 52s-26 52 -94 52s-94 -12 -94 -52s26 -52 94 -52z" />
    <glyph glyph-name="aogonek" unicode="&#x105;" horiz-adv-x="623" 
d="M563 0c-43 -52 -63 -115 68 -100v-70c-204 -30 -229 101 -138 170h-125v50c-25 -26 -64 -50 -139 -50c-122 0 -179 78 -179 170s57 170 179 170c75 0 114 -23 139 -50v95h-260v130h390v-385h65v-130zM274 118c68 0 94 12 94 52s-26 52 -94 52s-94 -12 -94 -52
s26 -52 94 -52z" />
    <glyph glyph-name="aring" unicode="&#xe5;" horiz-adv-x="623" 
d="M304 605c-88 0 -135 57 -135 125s47 125 135 125c87 0 135 -57 135 -125s-48 -125 -135 -125zM304 765c-33 0 -45 -12 -45 -35s12 -35 45 -35s45 12 45 35s-12 35 -45 35zM498 130h65v-130h-195v50c-25 -26 -64 -50 -139 -50c-122 0 -179 78 -179 170s57 170 179 170
c75 0 114 -23 139 -50v95h-260v130h390v-385zM274 118c68 0 94 12 94 52s-26 52 -94 52s-94 -12 -94 -52s26 -52 94 -52z" />
    <glyph glyph-name="atilde" unicode="&#xe3;" horiz-adv-x="623" 
d="M240 695c-31 0 -38 -20 -38 -60h-90c0 60 22 150 120 150c81 0 88 -60 137 -60c30 0 37 20 37 60h90c0 -60 -17 -150 -115 -150c-81 0 -93 60 -141 60zM498 130h65v-130h-195v50c-25 -26 -64 -50 -139 -50c-122 0 -179 78 -179 170s57 170 179 170c75 0 114 -23 139 -50
v95h-260v130h390v-385zM274 118c68 0 94 12 94 52s-26 52 -94 52s-94 -12 -94 -52s26 -52 94 -52z" />
    <glyph glyph-name="ae" unicode="&#xe6;" horiz-adv-x="890" 
d="M830 268v-60h-316c11 -50 44 -78 138 -78c30 0 75 0 144 16v-128c-78 -18 -116 -18 -154 -18c-102 0 -165 32 -204 75c-58 -59 -116 -75 -184 -75c-137 0 -194 83 -194 170s57 170 179 170c57 0 94 -16 119 -36l-18 81h-222v130h323l11 -51c36 32 87 51 154 51
c162 0 224 -107 224 -247zM604 385c-60 0 -89 -23 -95 -77h190c-4 57 -33 77 -95 77zM284 118c68 0 94 12 94 52s-26 52 -94 52s-94 -12 -94 -52s26 -52 94 -52z" />
    <glyph glyph-name="b" unicode="b" 
d="M344 515c157 0 224 -110 224 -257s-67 -258 -224 -258c-60 0 -110 22 -144 58v-58h-130v700h130v-242c34 35 84 57 144 57zM319 130c83 0 119 25 119 128c0 102 -36 127 -119 127s-119 -25 -119 -127c0 -103 36 -128 119 -128z" />
    <glyph glyph-name="c" unicode="c" horiz-adv-x="572" 
d="M50 258c0 147 77 257 237 257c148 0 225 -101 225 -210h-130c-4 47 -20 80 -93 80c-88 0 -109 -37 -109 -127s21 -128 109 -128c73 0 89 33 93 80h130c0 -109 -77 -210 -225 -210c-160 0 -237 111 -237 258z" />
    <glyph glyph-name="cacute" unicode="&#x107;" horiz-adv-x="572" 
d="M322 770h119l-111 -150h-99zM50 258c0 147 77 257 237 257c148 0 225 -101 225 -210h-130c-4 47 -20 80 -93 80c-88 0 -109 -37 -109 -127s21 -128 109 -128c73 0 89 33 93 80h130c0 -109 -77 -210 -225 -210c-160 0 -237 111 -237 258z" />
    <glyph glyph-name="ccaron" unicode="&#x10d;" horiz-adv-x="572" 
d="M231 625l-130 170h115l62 -100h6l62 100h115l-130 -170h-100zM289 130c73 0 89 33 93 80h130c0 -109 -77 -210 -225 -210c-160 0 -237 111 -237 258s77 257 237 257c148 0 225 -101 225 -210h-130c-4 47 -20 80 -93 80c-88 0 -109 -37 -109 -127s21 -128 109 -128z" />
    <glyph glyph-name="ccedilla" unicode="&#xe7;" horiz-adv-x="572" 
d="M289 130c73 0 89 33 93 80h130c0 -105 -71 -202 -207 -209l-7 -31c117 -24 80 -156 -94 -130v70c97 -25 112 54 28 60l20 32c-136 15 -202 120 -202 256c0 147 77 257 237 257c148 0 225 -101 225 -210h-130c-4 47 -20 80 -93 80c-88 0 -109 -37 -109 -127
s21 -128 109 -128z" />
    <glyph glyph-name="cdotaccent" unicode="&#x10b;" horiz-adv-x="572" 
d="M227 739h113v-114h-113v114zM50 258c0 147 77 257 237 257c148 0 225 -101 225 -210h-130c-4 47 -20 80 -93 80c-88 0 -109 -37 -109 -127s21 -128 109 -128c73 0 89 33 93 80h130c0 -109 -77 -210 -225 -210c-160 0 -237 111 -237 258z" />
    <glyph glyph-name="d" unicode="d" 
d="M418 700h130v-700h-130v58c-34 -36 -84 -58 -144 -58c-157 0 -224 111 -224 258s67 257 224 257c60 0 110 -22 144 -57v242zM299 130c83 0 119 25 119 128c0 102 -36 127 -119 127s-119 -25 -119 -127c0 -103 36 -128 119 -128z" />
    <glyph glyph-name="eth" unicode="&#xf0;" horiz-adv-x="638" 
d="M471 578c70 -73 107 -173 107 -313c0 -185 -118 -265 -254 -265s-264 65 -264 228c0 151 95 231 218 231c54 0 102 -14 141 -38c-17 42 -43 74 -77 101l-120 -52l-60 81l69 30c-22 8 -45 16 -70 24l53 112c64 -19 121 -42 169 -70l100 43l60 -81zM322 135
c106 0 126 49 126 106c0 63 -32 88 -137 88c-98 0 -121 -37 -121 -98c0 -60 21 -96 132 -96z" />
    <glyph glyph-name="dcaron" unicode="&#x10f;" horiz-adv-x="776" 
d="M418 700h130v-700h-130v58c-34 -36 -84 -58 -144 -58c-157 0 -224 111 -224 258s67 257 224 257c60 0 110 -22 144 -57v242zM616 700h130v-130l-54 -130h-71l35 130h-40v130zM299 130c83 0 119 25 119 128c0 102 -36 127 -119 127s-119 -25 -119 -127
c0 -103 36 -128 119 -128z" />
    <glyph glyph-name="dcroat" unicode="&#x111;" horiz-adv-x="668" 
d="M608 655v-110h-60v-545h-130v58c-34 -36 -84 -58 -144 -58c-157 0 -224 111 -224 258s67 257 224 257c60 0 110 -22 144 -57v87h-122v110h122v45h130v-45h60zM299 130c83 0 119 25 119 128c0 102 -36 127 -119 127s-119 -25 -119 -127c0 -103 36 -128 119 -128z" />
    <glyph glyph-name="e" unicode="e" horiz-adv-x="562" 
d="M502 268v-60h-316c11 -50 44 -78 138 -78c30 0 75 0 144 16v-128c-78 -18 -116 -18 -154 -18c-231 0 -264 163 -264 257c0 143 62 258 228 258c162 0 224 -107 224 -247zM276 385c-60 0 -89 -23 -95 -77h190c-4 57 -33 77 -95 77z" />
    <glyph glyph-name="eacute" unicode="&#xe9;" horiz-adv-x="562" 
d="M436 770l-111 -150h-99l91 150h119zM502 268v-60h-316c11 -50 44 -78 138 -78c30 0 75 0 144 16v-128c-78 -18 -116 -18 -154 -18c-231 0 -264 163 -264 257c0 143 62 258 228 258c162 0 224 -107 224 -247zM276 385c-60 0 -89 -23 -95 -77h190c-4 57 -33 77 -95 77z" />
    <glyph glyph-name="ecaron" unicode="&#x11b;" horiz-adv-x="562" 
d="M226 625l-130 170h115l62 -100h6l62 100h115l-130 -170h-100zM502 268v-60h-316c11 -50 44 -78 138 -78c30 0 75 0 144 16v-128c-78 -18 -116 -18 -154 -18c-231 0 -264 163 -264 257c0 143 62 258 228 258c162 0 224 -107 224 -247zM276 385c-60 0 -89 -23 -95 -77h190
c-4 57 -33 77 -95 77z" />
    <glyph glyph-name="ecircumflex" unicode="&#xea;" horiz-adv-x="562" 
d="M273 715l-62 -100h-115l130 170h100l130 -170h-115l-62 100h-6zM502 268v-60h-316c11 -50 44 -78 138 -78c30 0 75 0 144 16v-128c-78 -18 -116 -18 -154 -18c-231 0 -264 163 -264 257c0 143 62 258 228 258c162 0 224 -107 224 -247zM276 385c-60 0 -89 -23 -95 -77
h190c-4 57 -33 77 -95 77z" />
    <glyph glyph-name="edieresis" unicode="&#xeb;" horiz-adv-x="562" 
d="M240 739v-114h-113v114h113zM430 739v-114h-113v114h113zM502 268v-60h-316c11 -50 44 -78 138 -78c30 0 75 0 144 16v-128c-78 -18 -116 -18 -154 -18c-231 0 -264 163 -264 257c0 143 62 258 228 258c162 0 224 -107 224 -247zM276 385c-60 0 -89 -23 -95 -77h190
c-4 57 -33 77 -95 77z" />
    <glyph glyph-name="edotaccent" unicode="&#x117;" horiz-adv-x="562" 
d="M335 739v-114h-113v114h113zM502 268v-60h-316c11 -50 44 -78 138 -78c30 0 75 0 144 16v-128c-78 -18 -116 -18 -154 -18c-231 0 -264 163 -264 257c0 143 62 258 228 258c162 0 224 -107 224 -247zM276 385c-60 0 -89 -23 -95 -77h190c-4 57 -33 77 -95 77z" />
    <glyph glyph-name="egrave" unicode="&#xe8;" horiz-adv-x="562" 
d="M326 625h-99l-111 150h119zM502 268v-60h-316c11 -50 44 -78 138 -78c30 0 75 0 144 16v-128c-78 -18 -116 -18 -154 -18c-231 0 -264 163 -264 257c0 143 62 258 228 258c162 0 224 -107 224 -247zM276 385c-60 0 -89 -23 -95 -77h190c-4 57 -33 77 -95 77z" />
    <glyph glyph-name="emacron" unicode="&#x113;" horiz-adv-x="562" 
d="M432 735v-90h-312v90h312zM502 268v-60h-316c11 -50 44 -78 138 -78c30 0 75 0 144 16v-128c-78 -18 -116 -18 -154 -18c-231 0 -264 163 -264 257c0 143 62 258 228 258c162 0 224 -107 224 -247zM276 385c-60 0 -89 -23 -95 -77h190c-4 57 -33 77 -95 77z" />
    <glyph glyph-name="eogonek" unicode="&#x119;" horiz-adv-x="562" 
d="M454 15c-40 -51 -55 -110 72 -95v-70c-187 -27 -224 80 -158 152c-21 -2 -37 -2 -54 -2c-231 0 -264 163 -264 257c0 143 62 258 228 258c162 0 224 -107 224 -247v-60h-316c11 -50 44 -78 138 -78c30 0 75 0 144 16v-128zM276 385c-60 0 -89 -23 -95 -77h190
c-4 57 -33 77 -95 77z" />
    <glyph glyph-name="f" unicode="f" horiz-adv-x="462" 
d="M402 570h-142v-70h142v-130h-142v-370h-130v370h-80v130h80v200h272v-130z" />
    <glyph glyph-name="g" unicode="g" 
d="M418 515h130v-675h-410v130h280v135c-30 -28 -74 -55 -146 -55c-150 0 -222 103 -222 233c0 129 72 232 222 232c72 0 116 -27 146 -55v55zM299 180c88 0 119 25 119 103c0 77 -31 102 -119 102s-119 -25 -119 -102c0 -78 31 -103 119 -103z" />
    <glyph glyph-name="gbreve" unicode="&#x11f;" 
d="M284 615c-80 0 -150 30 -150 150h90c0 -50 25 -60 60 -60s60 10 60 60h90c0 -118 -70 -150 -150 -150zM418 515h130v-675h-410v130h280v135c-30 -28 -74 -55 -146 -55c-150 0 -222 103 -222 233c0 129 72 232 222 232c72 0 116 -27 146 -55v55zM299 180
c88 0 119 25 119 103c0 77 -31 102 -119 102s-119 -25 -119 -102c0 -78 31 -103 119 -103z" />
    <glyph glyph-name="gcommaaccent" unicode="&#x123;" 
d="M343 733v-114h-113v114l47 114h62l-31 -114h35zM418 515h130v-675h-410v130h280v135c-30 -28 -74 -55 -146 -55c-150 0 -222 103 -222 233c0 129 72 232 222 232c72 0 116 -27 146 -55v55zM299 180c88 0 119 25 119 103c0 77 -31 102 -119 102s-119 -25 -119 -102
c0 -78 31 -103 119 -103z" />
    <glyph glyph-name="gdotaccent" unicode="&#x121;" 
d="M343 739v-114h-113v114h113zM418 515h130v-675h-410v130h280v135c-30 -28 -74 -55 -146 -55c-150 0 -222 103 -222 233c0 129 72 232 222 232c72 0 116 -27 146 -55v55zM299 180c88 0 119 25 119 103c0 77 -31 102 -119 102s-119 -25 -119 -102c0 -78 31 -103 119 -103z
" />
    <glyph glyph-name="h" unicode="h" horiz-adv-x="610" 
d="M540 515v-515h-130v385h-210v-385h-130v700h130v-185h340z" />
    <glyph glyph-name="hbar" unicode="&#x127;" horiz-adv-x="650" 
d="M600 515v-515h-130v385h-210v-385h-130v550h-70v110h70v40h130v-40h112v-110h-112v-35h340z" />
    <glyph glyph-name="i" unicode="i" horiz-adv-x="270" 
d="M70 700h130v-100h-130v100zM70 515h130v-515h-130v515z" />
    <glyph glyph-name="dotlessi" unicode="&#x131;" horiz-adv-x="240" 
d="M55 515h130v-515h-130v515z" />
    <glyph glyph-name="iacute" unicode="&#xed;" horiz-adv-x="240" 
d="M161 770h119l-111 -150h-99zM55 515h130v-515h-130v515z" />
    <glyph glyph-name="icircumflex" unicode="&#xee;" horiz-adv-x="240" 
d="M170 785l130 -170h-115l-62 100h-6l-62 -100h-115l130 170h100zM55 0v515h130v-515h-130z" />
    <glyph glyph-name="idieresis" unicode="&#xef;" horiz-adv-x="240" 
d="M-30 739h114v-114h-114v114zM161 739h113v-114h-113v114zM55 515h130v-515h-130v515z" />
    <glyph glyph-name="i.loclTRK" horiz-adv-x="240" 
d="M66 739h113v-114h-113v114zM55 515h130v-515h-130v515z" />
    <glyph glyph-name="igrave" unicode="&#xec;" horiz-adv-x="240" 
d="M79 775l91 -150h-99l-111 150h119zM55 515h130v-515h-130v515z" />
    <glyph glyph-name="imacron" unicode="&#x12b;" horiz-adv-x="240" 
d="M-36 645v90h312v-90h-312zM55 515h130v-515h-130v515z" />
    <glyph glyph-name="iogonek" unicode="&#x12f;" horiz-adv-x="240" 
d="M179 739v-114h-113v114h113zM185 0c-43 -52 -63 -115 68 -100v-70c-204 -30 -229 101 -138 170h-60v515h130v-515z" />
    <glyph glyph-name="j" unicode="j" horiz-adv-x="320" 
d="M120 700h130v-100h-130v100zM120 -30v530h130v-660h-240v130h110z" />
    <glyph glyph-name="k" unicode="k" horiz-adv-x="624" 
d="M564 515l-177 -258l177 -257h-156l-135 192h-73v-192h-130v700h130v-378h73l135 193h156z" />
    <glyph glyph-name="kcommaaccent" unicode="&#x137;" horiz-adv-x="624" 
d="M564 515l-177 -258l177 -257h-156l-135 192h-73v-192h-130v700h130v-378h73l135 193h156zM235 -120v80h100v-80l-39 -65h-61l35 65h-35z" />
    <glyph glyph-name="l" unicode="l" horiz-adv-x="270" 
d="M70 700h130v-700h-130v700z" />
    <glyph glyph-name="lacute" unicode="&#x13a;" horiz-adv-x="270" 
d="M176 955h119l-111 -150h-99zM70 700h130v-700h-130v700z" />
    <glyph glyph-name="lcaron" unicode="&#x13e;" horiz-adv-x="270" 
d="M85 810l-130 170h115l62 -100h6l62 100h115l-130 -170h-100zM70 0v700h130v-700h-130z" />
    <glyph glyph-name="lcommaaccent" unicode="&#x13c;" horiz-adv-x="270" 
d="M70 700h130v-700h-130v700zM85 -40h100v-80l-39 -65h-61l35 65h-35v80z" />
    <glyph glyph-name="lslash" unicode="&#x142;" horiz-adv-x="432" 
d="M372 496v-123l-86 -46v-327h-130v257l-96 -51v123l96 51v320h130v-250z" />
    <glyph glyph-name="m" unicode="m" horiz-adv-x="860" 
d="M790 515v-515h-130v385h-165v-385h-130v385h-165v-385h-130v515h720z" />
    <glyph glyph-name="n" unicode="n" horiz-adv-x="600" 
d="M530 515v-515h-130v385h-210v-385h-130v515h470z" />
    <glyph glyph-name="nacute" unicode="&#x144;" horiz-adv-x="600" 
d="M455 770l-111 -150h-99l91 150h119zM530 515v-515h-130v385h-210v-385h-130v515h470z" />
    <glyph glyph-name="ncaron" unicode="&#x148;" horiz-adv-x="600" 
d="M245 625l-130 170h115l62 -100h6l62 100h115l-130 -170h-100zM530 515v-515h-130v385h-210v-385h-130v515h470z" />
    <glyph glyph-name="ncommaaccent" unicode="&#x146;" horiz-adv-x="600" 
d="M530 515v-515h-130v385h-210v-385h-130v515h470zM245 -120v80h100v-80l-39 -65h-61l35 65h-35z" />
    <glyph glyph-name="eng" unicode="&#x14b;" horiz-adv-x="600" 
d="M530 515v-690h-240v130h110v430h-210v-385h-130v515h470z" />
    <glyph glyph-name="ntilde" unicode="&#xf1;" horiz-adv-x="600" 
d="M236 680c-31 0 -38 -20 -38 -60h-90c0 60 22 150 120 150c81 0 88 -60 137 -60c30 0 37 20 37 60h90c0 -60 -17 -150 -115 -150c-81 0 -93 60 -141 60zM530 515v-515h-130v385h-210v-385h-130v515h470z" />
    <glyph glyph-name="o" unicode="o" horiz-adv-x="598" 
d="M299 0c-162 0 -249 111 -249 258s87 257 249 257s249 -110 249 -257s-87 -258 -249 -258zM299 130c88 0 119 28 119 128s-31 127 -119 127s-119 -27 -119 -127s31 -128 119 -128z" />
    <glyph glyph-name="oacute" unicode="&#xf3;" horiz-adv-x="598" 
d="M340 770h119l-111 -150h-99zM299 0c-162 0 -249 111 -249 258s87 257 249 257s249 -110 249 -257s-87 -258 -249 -258zM299 130c88 0 119 28 119 128s-31 127 -119 127s-119 -27 -119 -127s31 -128 119 -128z" />
    <glyph glyph-name="ocircumflex" unicode="&#xf4;" horiz-adv-x="598" 
d="M296 715l-62 -100h-115l130 170h100l130 -170h-115l-62 100h-6zM299 515c162 0 249 -110 249 -257s-87 -258 -249 -258s-249 111 -249 258s87 257 249 257zM299 130c88 0 119 28 119 128s-31 127 -119 127s-119 -27 -119 -127s31 -128 119 -128z" />
    <glyph glyph-name="odieresis" unicode="&#xf6;" horiz-adv-x="598" 
d="M150 739h113v-114h-113v114zM340 739h113v-114h-113v114zM299 0c-162 0 -249 111 -249 258s87 257 249 257s249 -110 249 -257s-87 -258 -249 -258zM299 130c88 0 119 28 119 128s-31 127 -119 127s-119 -27 -119 -127s31 -128 119 -128z" />
    <glyph glyph-name="ograve" unicode="&#xf2;" horiz-adv-x="598" 
d="M258 775l91 -150h-99l-111 150h119zM299 0c-162 0 -249 111 -249 258s87 257 249 257s249 -110 249 -257s-87 -258 -249 -258zM299 130c88 0 119 28 119 128s-31 127 -119 127s-119 -27 -119 -127s31 -128 119 -128z" />
    <glyph glyph-name="ohungarumlaut" unicode="&#x151;" horiz-adv-x="598" 
d="M250 775h119l-111 -150h-99zM430 775h119l-111 -150h-99zM299 0c-162 0 -249 111 -249 258s87 257 249 257s249 -110 249 -257s-87 -258 -249 -258zM299 130c88 0 119 28 119 128s-31 127 -119 127s-119 -27 -119 -127s31 -128 119 -128z" />
    <glyph glyph-name="omacron" unicode="&#x14d;" horiz-adv-x="598" 
d="M143 645v90h312v-90h-312zM299 0c-162 0 -249 111 -249 258s87 257 249 257s249 -110 249 -257s-87 -258 -249 -258zM299 130c88 0 119 28 119 128s-31 127 -119 127s-119 -27 -119 -127s31 -128 119 -128z" />
    <glyph glyph-name="oslash" unicode="&#xf8;" horiz-adv-x="627" 
d="M567 445l-40 -41c24 -41 36 -91 36 -146c0 -147 -87 -258 -249 -258c-58 0 -106 14 -144 39l-38 -39l-72 70l41 42c-24 41 -36 91 -36 146c0 147 87 257 249 257c57 0 106 -14 144 -38l37 38zM195 258c0 -18 1 -33 3 -47l166 170c-14 3 -31 4 -50 4
c-88 0 -119 -27 -119 -127zM433 258c0 18 -1 33 -3 47l-166 -170c14 -4 30 -5 50 -5c88 0 119 28 119 128z" />
    <glyph glyph-name="otilde" unicode="&#xf5;" horiz-adv-x="598" 
d="M107 635c0 60 22 150 120 150c81 0 88 -60 137 -60c30 0 37 20 37 60h90c0 -60 -17 -150 -115 -150c-81 0 -93 60 -141 60c-31 0 -38 -20 -38 -60h-90zM299 0c-162 0 -249 111 -249 258s87 257 249 257s249 -110 249 -257s-87 -258 -249 -258zM299 130
c88 0 119 28 119 128s-31 127 -119 127s-119 -27 -119 -127s31 -128 119 -128z" />
    <glyph glyph-name="oe" unicode="&#x153;" horiz-adv-x="940" 
d="M880 268v-60h-316c11 -50 44 -78 138 -78c30 0 75 0 144 16v-128c-78 -18 -116 -18 -154 -18c-103 0 -166 32 -205 77c-42 -48 -105 -77 -188 -77c-162 0 -249 111 -249 258s87 257 249 257c80 0 142 -27 184 -72c36 45 92 72 173 72c162 0 224 -107 224 -247zM299 130
c88 0 119 28 119 128s-31 127 -119 127s-119 -27 -119 -127s31 -128 119 -128zM654 385c-60 0 -89 -23 -95 -77h190c-4 57 -33 77 -95 77z" />
    <glyph glyph-name="p" unicode="p" 
d="M344 515c157 0 224 -110 224 -257s-67 -258 -224 -258c-60 0 -110 22 -144 58v-218h-130v675h130v-57c34 35 84 57 144 57zM319 130c83 0 119 25 119 128c0 102 -36 127 -119 127s-119 -25 -119 -127c0 -103 36 -128 119 -128z" />
    <glyph glyph-name="thorn" unicode="&#xfe;" 
d="M344 515c157 0 224 -110 224 -257s-67 -258 -224 -258c-60 0 -110 22 -144 58v-218h-130v860h130v-242c34 35 84 57 144 57zM319 130c83 0 119 25 119 128c0 102 -36 127 -119 127s-119 -25 -119 -127c0 -103 36 -128 119 -128z" />
    <glyph glyph-name="q" unicode="q" 
d="M418 515h130v-675h-130v218c-34 -36 -84 -58 -144 -58c-157 0 -224 111 -224 258s67 257 224 257c60 0 110 -22 144 -57v57zM299 130c83 0 119 25 119 128c0 102 -36 127 -119 127s-119 -25 -119 -127c0 -103 36 -128 119 -128z" />
    <glyph glyph-name="r" unicode="r" horiz-adv-x="432" 
d="M382 515v-130h-192v-385h-130v515h322z" />
    <glyph glyph-name="racute" unicode="&#x155;" horiz-adv-x="432" 
d="M381 770l-111 -150h-99l91 150h119zM382 515v-130h-192v-385h-130v515h322z" />
    <glyph glyph-name="rcaron" unicode="&#x159;" horiz-adv-x="432" 
d="M171 625l-130 170h115l62 -100h6l62 100h115l-130 -170h-100zM60 515h322v-130h-192v-385h-130v515z" />
    <glyph glyph-name="rcommaaccent" unicode="&#x157;" horiz-adv-x="432" 
d="M382 515v-130h-192v-385h-130v515h322zM75 -120v80h100v-80l-39 -65h-61l35 65h-35z" />
    <glyph glyph-name="s" unicode="s" horiz-adv-x="550" 
d="M60 54v141c91 -47 158 -65 232 -65c48 0 68 12 68 35c0 26 -18 30 -98 43c-157 23 -202 67 -202 157c0 98 86 150 193 150c67 0 148 -18 197 -42v-130c-73 26 -152 42 -207 42c-36 0 -53 -8 -53 -28c0 -23 13 -27 93 -42c150 -27 207 -56 207 -154
c0 -112 -96 -161 -208 -161c-78 0 -149 15 -222 54z" />
    <glyph glyph-name="sacute" unicode="&#x15b;" horiz-adv-x="550" 
d="M325 770h119l-111 -150h-99zM60 54v141c91 -47 158 -65 232 -65c48 0 68 12 68 35c0 26 -18 30 -98 43c-157 23 -202 67 -202 157c0 98 86 150 193 150c67 0 148 -18 197 -42v-130c-73 26 -152 42 -207 42c-36 0 -53 -8 -53 -28c0 -23 13 -27 93 -42
c150 -27 207 -56 207 -154c0 -112 -96 -161 -208 -161c-78 0 -149 15 -222 54z" />
    <glyph glyph-name="scaron" unicode="&#x161;" horiz-adv-x="550" 
d="M234 625l-130 170h115l62 -100h6l62 100h115l-130 -170h-100zM283 315c150 -27 207 -56 207 -154c0 -112 -96 -161 -208 -161c-78 0 -149 15 -222 54v141c91 -47 158 -65 232 -65c48 0 68 12 68 35c0 26 -18 30 -98 43c-157 23 -202 67 -202 157c0 98 86 150 193 150
c67 0 148 -18 197 -42v-130c-73 26 -152 42 -207 42c-36 0 -53 -8 -53 -28c0 -23 13 -27 93 -42z" />
    <glyph glyph-name="scedilla" unicode="&#x15f;" horiz-adv-x="550" 
d="M490 161c0 -110 -93 -159 -202 -161l-7 -30c117 -24 80 -156 -94 -130v70c97 -25 112 54 28 60l20 32c-60 5 -117 21 -175 52v141c91 -47 158 -65 232 -65c48 0 68 12 68 35c0 26 -18 30 -98 43c-157 23 -202 67 -202 157c0 98 86 150 193 150c67 0 148 -18 197 -42v-130
c-73 26 -152 42 -207 42c-36 0 -53 -8 -53 -28c0 -23 13 -27 93 -42c150 -27 207 -56 207 -154z" />
    <glyph glyph-name="scommaaccent" unicode="&#x219;" horiz-adv-x="550" 
d="M60 54v141c91 -47 158 -65 232 -65c48 0 68 12 68 35c0 26 -18 30 -98 43c-157 23 -202 67 -202 157c0 98 86 150 193 150c67 0 148 -18 197 -42v-130c-73 26 -152 42 -207 42c-36 0 -53 -8 -53 -28c0 -23 13 -27 93 -42c150 -27 207 -56 207 -154
c0 -112 -96 -161 -208 -161c-78 0 -149 15 -222 54zM214 -40h100v-80l-39 -65h-61l35 65h-35v80z" />
    <glyph glyph-name="germandbls" unicode="&#xdf;" horiz-adv-x="648" 
d="M364 130c66 0 94 23 94 77c0 57 -36 80 -139 80h-44v130h44c59 0 79 21 79 65c0 43 -23 68 -94 68c-83 0 -104 -30 -104 -90v-460h-130v460c0 117 62 220 239 220c152 0 219 -93 219 -180c0 -74 -33 -117 -96 -137v-16c127 -5 156 -82 156 -157c0 -97 -67 -190 -219 -190
c-46 0 -76 10 -102 20v130c26 -10 51 -20 97 -20z" />
    <glyph glyph-name="t" unicode="t" horiz-adv-x="457" 
d="M397 385h-137v-255h137v-130h-267v385h-80v130h80v185h130v-185h137v-130z" />
    <glyph glyph-name="tbar" unicode="&#x167;" horiz-adv-x="457" 
d="M397 385h-137v-80h117v-110h-117v-65h137v-130h-267v195h-65v110h65v80h-80v130h80v185h130v-185h137v-130z" />
    <glyph glyph-name="tcaron" unicode="&#x165;" horiz-adv-x="477" 
d="M317 790h130v-130l-54 -130h-71l35 130h-40v130zM260 700v-185h137v-130h-137v-255h137v-130h-267v385h-80v130h80v185h130z" />
    <glyph glyph-name="uni0163" unicode="&#x163;" horiz-adv-x="457" 
d="M397 385h-137v-255h137v-130h-107l-7 -30c117 -24 80 -156 -94 -130v70c97 -25 112 54 28 60l19 30h-106v385h-80v130h80v185h130v-185h137v-130z" />
    <glyph glyph-name="uni021B" unicode="&#x21b;" horiz-adv-x="457" 
d="M397 385h-137v-255h137v-130h-267v385h-80v130h80v185h130v-185h137v-130zM216 -120v80h100v-80l-39 -65h-61l35 65h-35z" />
    <glyph glyph-name="u" unicode="u" horiz-adv-x="608" 
d="M548 230c0 -167 -92 -230 -244 -230s-244 63 -244 230v285h130v-275c0 -90 31 -110 114 -110s114 20 114 110v275h130v-285z" />
    <glyph glyph-name="uacute" unicode="&#xfa;" horiz-adv-x="608" 
d="M345 770h119l-111 -150h-99zM548 230c0 -167 -92 -230 -244 -230s-244 63 -244 230v285h130v-275c0 -90 31 -110 114 -110s114 20 114 110v275h130v-285z" />
    <glyph glyph-name="ucircumflex" unicode="&#xfb;" horiz-adv-x="608" 
d="M301 715l-62 -100h-115l130 170h100l130 -170h-115l-62 100h-6zM418 515h130v-285c0 -167 -92 -230 -244 -230s-244 63 -244 230v285h130v-275c0 -90 31 -110 114 -110s114 20 114 110v275z" />
    <glyph glyph-name="udieresis" unicode="&#xfc;" horiz-adv-x="608" 
d="M155 739h113v-114h-113v114zM345 739h113v-114h-113v114zM548 230c0 -167 -92 -230 -244 -230s-244 63 -244 230v285h130v-275c0 -90 31 -110 114 -110s114 20 114 110v275h130v-285z" />
    <glyph glyph-name="ugrave" unicode="&#xf9;" horiz-adv-x="608" 
d="M263 775l91 -150h-99l-111 150h119zM548 230c0 -167 -92 -230 -244 -230s-244 63 -244 230v285h130v-275c0 -90 31 -110 114 -110s114 20 114 110v275h130v-285z" />
    <glyph glyph-name="uhungarumlaut" unicode="&#x171;" horiz-adv-x="608" 
d="M255 775h119l-111 -150h-99zM435 775h119l-111 -150h-99zM548 230c0 -167 -92 -230 -244 -230s-244 63 -244 230v285h130v-275c0 -90 31 -110 114 -110s114 20 114 110v275h130v-285z" />
    <glyph glyph-name="umacron" unicode="&#x16b;" horiz-adv-x="608" 
d="M148 645v90h312v-90h-312zM548 230c0 -167 -92 -230 -244 -230s-244 63 -244 230v285h130v-275c0 -90 31 -110 114 -110s114 20 114 110v275h130v-285z" />
    <glyph glyph-name="uogonek" unicode="&#x173;" horiz-adv-x="608" 
d="M418 515h130v-285c0 -139 -64 -206 -173 -224c-40 -52 -55 -111 72 -96v-70c-195 -29 -226 89 -150 160c-148 2 -237 66 -237 230v285h130v-275c0 -90 31 -110 114 -110s114 20 114 110v275z" />
    <glyph glyph-name="uring" unicode="&#x16f;" horiz-adv-x="608" 
d="M304 605c-88 0 -135 57 -135 125s47 125 135 125c87 0 135 -57 135 -125s-48 -125 -135 -125zM304 695c33 0 45 12 45 35s-12 35 -45 35s-45 -12 -45 -35s12 -35 45 -35zM548 230c0 -167 -92 -230 -244 -230s-244 63 -244 230v285h130v-275c0 -90 31 -110 114 -110
s114 20 114 110v275h130v-285z" />
    <glyph glyph-name="v" unicode="v" horiz-adv-x="638" 
d="M440 515h138l-159 -515h-200l-159 515h138l113 -373h16z" />
    <glyph glyph-name="w" unicode="w" horiz-adv-x="992" 
d="M798 515h134l-125 -515h-220l-83 372h-16l-82 -372h-220l-126 515h134l91 -372h16l84 372h222l84 -372h16z" />
    <glyph glyph-name="wacute" unicode="&#x1e83;" horiz-adv-x="992" 
d="M656 770l-111 -150h-99l91 150h119zM798 515h134l-125 -515h-220l-83 372h-16l-82 -372h-220l-126 515h134l91 -372h16l84 372h222l84 -372h16z" />
    <glyph glyph-name="wcircumflex" unicode="&#x175;" horiz-adv-x="992" 
d="M493 715l-62 -100h-115l130 170h100l130 -170h-115l-62 100h-6zM798 515h134l-125 -515h-220l-83 372h-16l-82 -372h-220l-126 515h134l91 -372h16l84 372h222l84 -372h16z" />
    <glyph glyph-name="wdieresis" unicode="&#x1e85;" horiz-adv-x="992" 
d="M460 739v-114h-113v114h113zM650 739v-114h-113v114h113zM798 515h134l-125 -515h-220l-83 372h-16l-82 -372h-220l-126 515h134l91 -372h16l84 372h222l84 -372h16z" />
    <glyph glyph-name="wgrave" unicode="&#x1e81;" horiz-adv-x="992" 
d="M546 625h-99l-111 150h119zM798 515h134l-125 -515h-220l-83 372h-16l-82 -372h-220l-126 515h134l91 -372h16l84 372h222l84 -372h16z" />
    <glyph glyph-name="x" unicode="x" 
d="M568 515l-172 -257l172 -258h-159l-97 165h-6l-102 -165h-154l173 258l-173 257h154l102 -165h6l97 165h159z" />
    <glyph glyph-name="y" unicode="y" 
d="M418 515h130v-675h-420v130h290v135c-30 -33 -79 -55 -139 -55c-157 0 -219 93 -219 230v235h130v-230c0 -80 36 -105 114 -105s114 25 114 105v230z" />
    <glyph glyph-name="yacute" unicode="&#xfd;" 
d="M469 770l-111 -150h-99l91 150h119zM418 515h130v-675h-420v130h290v135c-30 -33 -79 -55 -139 -55c-157 0 -219 93 -219 230v235h130v-230c0 -80 36 -105 114 -105s114 25 114 105v230z" />
    <glyph glyph-name="ycircumflex" unicode="&#x177;" 
d="M306 715l-62 -100h-115l130 170h100l130 -170h-115l-62 100h-6zM418 515h130v-675h-420v130h290v135c-30 -33 -79 -55 -139 -55c-157 0 -219 93 -219 230v235h130v-230c0 -80 36 -105 114 -105s114 25 114 105v230z" />
    <glyph glyph-name="ydieresis" unicode="&#xff;" 
d="M273 739v-114h-113v114h113zM463 739v-114h-113v114h113zM418 515h130v-675h-420v130h290v135c-30 -33 -79 -55 -139 -55c-157 0 -219 93 -219 230v235h130v-230c0 -80 36 -105 114 -105s114 25 114 105v230z" />
    <glyph glyph-name="ygrave" unicode="&#x1ef3;" 
d="M359 625h-99l-111 150h119zM418 515h130v-675h-420v130h290v135c-30 -33 -79 -55 -139 -55c-157 0 -219 93 -219 230v235h130v-230c0 -80 36 -105 114 -105s114 25 114 105v230z" />
    <glyph glyph-name="z" unicode="z" horiz-adv-x="575" 
d="M515 515v-94l-252 -291h252v-130h-455v94l252 291h-252v130h455z" />
    <glyph glyph-name="zacute" unicode="&#x17a;" horiz-adv-x="575" 
d="M448 770l-111 -150h-99l91 150h119zM515 515v-94l-252 -291h252v-130h-455v94l252 291h-252v130h455z" />
    <glyph glyph-name="zcaron" unicode="&#x17e;" horiz-adv-x="575" 
d="M238 625l-130 170h115l62 -100h6l62 100h115l-130 -170h-100zM515 515v-94l-252 -291h252v-130h-455v94l252 291h-252v130h455z" />
    <glyph glyph-name="zdotaccent" unicode="&#x17c;" horiz-adv-x="575" 
d="M347 739v-114h-113v114h113zM515 515v-94l-252 -291h252v-130h-455v94l252 291h-252v130h455z" />
    <glyph glyph-name="a.001" 
d="M423 515h130v-515h-130v58c-34 -36 -84 -58 -144 -58c-157 0 -224 111 -224 258s67 257 224 257c60 0 110 -22 144 -57v57zM304 130c83 0 119 25 119 128c0 102 -36 127 -119 127s-119 -25 -119 -127c0 -103 36 -128 119 -128z" />
    <glyph glyph-name="a.ss01" horiz-adv-x="668" 
d="M548 130h60v-130h-190v58c-34 -36 -84 -58 -144 -58c-157 0 -224 111 -224 258s67 257 224 257c60 0 110 -22 144 -57v57h130v-385zM299 130c83 0 119 25 119 128c0 102 -36 127 -119 127s-119 -25 -119 -127c0 -103 36 -128 119 -128z" />
    <glyph glyph-name="s.ss01" horiz-adv-x="550" 
d="M490 385h-289v-74h289v-311h-430v130h300v81h-289v304h419v-130z" />
    <glyph glyph-name="u.ss01" horiz-adv-x="600" 
d="M400 515h130v-515h-470v515h130v-385h210v385z" />
    <glyph glyph-name="f_i" horiz-adv-x="657" 
d="M260 515h327v-515h-130v385h-197v-385h-130v385h-80v130h80v185h252v-100h-122v-85zM457 700h130v-100h-130v100z" />
    <glyph glyph-name="f_l" horiz-adv-x="662" 
d="M592 700v-700h-130v570h-202v-70h132v-130h-132v-370h-130v370h-80v130h80v200h462z" />
    <glyph glyph-name="uni0410" unicode="&#x410;" horiz-adv-x="736" 
d="M538 0l-39 130h-261l-39 -130h-139l208 680h201l207 -680h-138zM277 260h183l-84 277h-16z" />
    <glyph glyph-name="uni0411" unicode="&#x411;" horiz-adv-x="628" 
d="M339 420c177 0 229 -88 229 -210s-52 -210 -229 -210h-269v680h415v-130h-285v-130h139zM344 130c58 0 94 15 94 80s-36 80 -94 80h-144v-160h144z" />
    <glyph glyph-name="uni0412" unicode="&#x412;" horiz-adv-x="623" 
d="M407 355c117 -7 156 -72 156 -160c0 -102 -50 -195 -229 -195h-264v680h264c152 0 209 -79 209 -166c0 -70 -36 -136 -136 -143v-16zM200 550v-125h129c60 0 84 15 84 63c0 47 -24 62 -84 62h-129zM334 140c70 0 99 15 99 78c0 62 -29 77 -99 77h-134v-155h134z" />
    <glyph glyph-name="uni0413" unicode="&#x413;" horiz-adv-x="557" 
d="M497 680v-130h-297v-550h-130v680h427z" />
    <glyph glyph-name="uni0414" unicode="&#x414;" horiz-adv-x="892" 
d="M717 130h105v-290h-130v160h-492v-160h-130v290h78c87 107 87 321 87 547v3h482v-550zM288 130h299v420h-222c-2 -177 -14 -334 -77 -420z" />
    <glyph glyph-name="uni0415" unicode="&#x415;" horiz-adv-x="578" 
d="M518 550h-328v-140h258v-130h-258v-150h328v-130h-448v680h448v-130z" />
    <glyph glyph-name="uni0401" unicode="&#x401;" horiz-adv-x="578" 
d="M243 904v-114h-113v114h113zM433 904v-114h-113v114h113zM518 550h-328v-140h258v-130h-258v-150h328v-130h-448v680h448v-130z" />
    <glyph glyph-name="uni0416" unicode="&#x416;" horiz-adv-x="1031" 
d="M971 680l-229 -340l229 -340h-157l-183 275h-50v-275h-130v275h-51l-183 -275h-157l229 340l-229 340h157l183 -275h51v275h130v-275h50l183 275h157z" />
    <glyph glyph-name="uni0417" unicode="&#x417;" horiz-adv-x="628" 
d="M60 230h130c0 -75 26 -100 124 -100c96 0 124 25 124 78c0 64 -36 84 -139 84h-44v120h44c93 0 119 19 119 76c0 41 -28 62 -104 62c-98 0 -124 -25 -124 -90h-130c0 117 57 220 254 220c177 0 234 -93 234 -170c0 -74 -23 -133 -116 -147v-16c97 -15 136 -72 136 -152
c0 -102 -57 -195 -254 -195s-254 103 -254 230z" />
    <glyph glyph-name="uni0418" unicode="&#x418;" horiz-adv-x="710" 
d="M510 680h130v-680h-130v428h-16l-294 -428h-130v680h130v-428h16z" />
    <glyph glyph-name="uni0419" unicode="&#x419;" horiz-adv-x="710" 
d="M355 780c-80 0 -150 30 -150 150h90c0 -50 25 -60 60 -60s60 10 60 60h90c0 -118 -70 -150 -150 -150zM510 680h130v-680h-130v428h-16l-294 -428h-130v680h130v-428h16z" />
    <glyph glyph-name="uni041A" unicode="&#x41a;" horiz-adv-x="670" 
d="M459 0l-170 263h-89v-263h-130v680h130v-282h2c184 0 130 282 373 282v-130c-109 0 -94 -134 -190 -205l225 -345h-151z" />
    <glyph glyph-name="uni041B" unicode="&#x41b;" horiz-adv-x="719" 
d="M659 680v-680h-130v550h-221c-1 -278 -19 -550 -248 -550v130c108 0 117 183 117 420v130h482z" />
    <glyph glyph-name="uni041C" unicode="&#x41c;" horiz-adv-x="904" 
d="M704 680h130v-680h-130v369h-16l-164 -318h-144l-164 318h-16v-369h-130v680h130l244 -473h16z" />
    <glyph glyph-name="uni041D" unicode="&#x41d;" horiz-adv-x="699" 
d="M499 680h130v-680h-130v265h-299v-265h-130v680h130v-285h299v285z" />
    <glyph glyph-name="uni041E" unicode="&#x41e;" horiz-adv-x="764" 
d="M382 0c-208 0 -332 150 -332 340s124 340 332 340s332 -150 332 -340s-124 -340 -332 -340zM382 130c116 0 202 52 202 210c0 159 -86 210 -202 210s-202 -51 -202 -210c0 -158 86 -210 202 -210z" />
    <glyph glyph-name="uni041F" unicode="&#x41f;" horiz-adv-x="728" 
d="M668 680v-680h-130v550h-348v-550h-130v680h608z" />
    <glyph glyph-name="uni0420" unicode="&#x420;" horiz-adv-x="659" 
d="M319 680c216 0 280 -95 280 -238s-64 -239 -280 -239h-119v-203h-130v680h249zM342 333c101 0 127 29 127 109c0 83 -26 108 -127 108h-142v-217h142z" />
    <glyph glyph-name="uni0421" unicode="&#x421;" horiz-adv-x="699" 
d="M50 340c0 170 84 340 307 340c191 0 286 -119 292 -259h-130c-17 93 -51 129 -162 129c-119 0 -177 -44 -177 -210s58 -210 177 -210c111 0 145 36 162 129h130c-6 -140 -101 -259 -292 -259c-223 0 -307 170 -307 340z" />
    <glyph glyph-name="uni0422" unicode="&#x422;" horiz-adv-x="638" 
d="M578 680v-130h-194v-550h-130v550h-194v130h518z" />
    <glyph glyph-name="uni0423" unicode="&#x423;" horiz-adv-x="608" 
d="M418 680h130v-680h-420v130h290v140c-30 -33 -79 -55 -139 -55c-157 0 -219 93 -219 230v235h130v-230c0 -80 36 -105 114 -105s114 25 114 105v230z" />
    <glyph glyph-name="uni0424" unicode="&#x424;" horiz-adv-x="814" 
d="M754 340c0 -157 -100 -250 -282 -267v-73h-130v73c-182 17 -282 110 -282 267s100 250 282 267v73h130v-73c182 -17 282 -110 282 -267zM190 340c0 -93 51 -128 152 -137v274c-101 -9 -152 -44 -152 -137zM472 203c100 9 152 44 152 137s-52 128 -152 137v-274z" />
    <glyph glyph-name="uni0425" unicode="&#x425;" horiz-adv-x="748" 
d="M688 680l-225 -340l225 -340h-157l-154 240h-6l-153 -240h-158l225 340l-225 340h158l153 -240h6l154 240h157z" />
    <glyph glyph-name="uni0427" unicode="&#x427;" horiz-adv-x="715" 
d="M525 680h130v-680h-130v255h-158c-253 0 -287 170 -287 425h130c0 -226 8 -295 157 -295h158v295z" />
    <glyph glyph-name="uni0426" unicode="&#x426;" horiz-adv-x="868" 
d="M808 130v-290h-130v160h-618v680h130v-550h348v550h130v-550h140z" />
    <glyph glyph-name="uni0428" unicode="&#x428;" horiz-adv-x="890" 
d="M700 680h130v-680h-770v680h130v-550h190v550h130v-550h190v550z" />
    <glyph glyph-name="uni0429" unicode="&#x429;" horiz-adv-x="1030" 
d="M970 130v-290h-130v160h-780v680h130v-550h190v550h130v-550h190v550h130v-550h140z" />
    <glyph glyph-name="uni042C" unicode="&#x42c;" 
d="M329 420c177 0 229 -93 229 -210s-52 -210 -229 -210h-269v680h130v-260h139zM334 130c58 0 94 15 94 80s-36 80 -94 80h-144v-160h144z" />
    <glyph glyph-name="uni042A" unicode="&#x42a;" horiz-adv-x="778" 
d="M489 420c177 0 229 -93 229 -210s-52 -210 -229 -210h-269v550h-160v130h290v-260h139zM494 130c58 0 94 15 94 80s-36 80 -94 80h-144v-160h144z" />
    <glyph glyph-name="uni042B" unicode="&#x42b;" horiz-adv-x="835" 
d="M329 420c177 0 229 -93 229 -210s-52 -210 -229 -210h-269v680h130v-260h139zM645 680h130v-680h-130v680zM334 130c58 0 94 15 94 80s-36 80 -94 80h-144v-160h144z" />
    <glyph glyph-name="uni042D" unicode="&#x42d;" horiz-adv-x="699" 
d="M342 680c223 0 307 -170 307 -340s-84 -340 -307 -340c-191 0 -286 119 -292 259h130c17 -93 51 -129 162 -129c102 0 159 32 173 145h-210v130h210c-14 113 -71 145 -173 145c-111 0 -145 -36 -162 -129h-130c6 140 101 259 292 259z" />
    <glyph glyph-name="uni042E" unicode="&#x42e;" horiz-adv-x="940" 
d="M593 680c223 0 287 -150 287 -340s-64 -340 -287 -340c-197 0 -270 117 -284 275h-119v-275h-130v680h130v-275h119c14 158 87 275 284 275zM593 130c133 0 157 59 157 210s-24 210 -157 210c-134 0 -157 -59 -157 -210s23 -210 157 -210z" />
    <glyph glyph-name="uni042F" unicode="&#x42f;" horiz-adv-x="659" 
d="M350 680h239v-680h-130v208h-269v-208h-130v270h204v16c-140 6 -194 69 -194 179c0 123 64 215 280 215zM459 338v212h-109c-116 0 -150 -17 -150 -105c0 -85 34 -107 150 -107h109z" />
    <glyph glyph-name="uni0430" unicode="&#x430;" horiz-adv-x="623" 
d="M498 130h65v-130h-195v50c-25 -26 -64 -50 -139 -50c-122 0 -179 78 -179 170s57 170 179 170c75 0 114 -23 139 -50v95h-260v130h390v-385zM274 118c68 0 94 12 94 52s-26 52 -94 52s-94 -12 -94 -52s26 -52 94 -52z" />
    <glyph glyph-name="uni0431" unicode="&#x431;" horiz-adv-x="613" 
d="M332 485c144 0 221 -98 221 -242c0 -145 -77 -243 -236 -243c-200 0 -257 124 -257 275v150c0 124 43 255 269 255c58 0 96 0 154 20v-128c-45 -22 -94 -22 -154 -22c-131 0 -139 -42 -139 -122c25 28 74 57 142 57zM307 130c85 0 116 25 116 113c0 87 -31 112 -116 112
c-86 0 -117 -25 -117 -107c0 -78 31 -118 117 -118z" />
    <glyph glyph-name="uni0432" unicode="&#x432;" horiz-adv-x="539" 
d="M354 259c84 -4 125 -43 125 -119c0 -77 -42 -140 -176 -140h-243v515h243c120 0 161 -58 161 -135c0 -63 -37 -101 -110 -105v-16zM190 385v-68h97c36 0 47 4 47 34s-11 34 -47 34h-97zM290 130c46 0 59 8 59 41s-13 41 -59 41h-100v-82h100z" />
    <glyph glyph-name="uni0433" unicode="&#x433;" horiz-adv-x="492" 
d="M432 515v-130h-242v-385h-130v515h372z" />
    <glyph glyph-name="uni0434" unicode="&#x434;" horiz-adv-x="742" 
d="M602 130h90v-290h-130v160h-372v-160h-130v290h63c87 102 87 158 87 382v3h392v-385zM266 130h206v255h-132c-2 -125 -14 -176 -74 -255z" />
    <glyph glyph-name="uni0435" unicode="&#x435;" horiz-adv-x="562" 
d="M502 268v-60h-316c11 -50 44 -78 138 -78c30 0 75 0 144 16v-128c-78 -18 -116 -18 -154 -18c-231 0 -264 163 -264 257c0 143 62 258 228 258c162 0 224 -107 224 -247zM276 385c-60 0 -89 -23 -95 -77h190c-4 57 -33 77 -95 77z" />
    <glyph glyph-name="uni0451" unicode="&#x451;" horiz-adv-x="562" 
d="M240 724v-114h-113v114h113zM430 724v-114h-113v114h113zM502 268v-60h-316c11 -50 44 -78 138 -78c30 0 75 0 144 16v-128c-78 -18 -116 -18 -154 -18c-231 0 -264 163 -264 257c0 143 62 258 228 258c162 0 224 -107 224 -247zM276 385c-60 0 -89 -23 -95 -77h190
c-4 57 -33 77 -95 77z" />
    <glyph glyph-name="uni0436" unicode="&#x436;" horiz-adv-x="920" 
d="M860 515l-177 -258l177 -257h-156l-135 192h-48v-192h-130v192h-40l-135 -192h-156l177 257l-177 258h156l135 -193h40v193h130v-193h48l135 193h156z" />
    <glyph glyph-name="uni0437" unicode="&#x437;" horiz-adv-x="548" 
d="M60 190h130c0 -46 21 -60 94 -60c57 0 74 13 74 40c0 34 -26 41 -62 41h-44v100h44c29 0 49 7 49 37c0 29 -23 37 -64 37c-53 0 -74 -10 -74 -45h-130c0 92 67 175 204 175c127 0 194 -73 194 -140c0 -73 -39 -99 -96 -106v-16c72 -10 109 -45 109 -108
c0 -72 -62 -145 -204 -145c-157 0 -224 83 -224 190z" />
    <glyph glyph-name="uni0438" unicode="&#x438;" horiz-adv-x="605" 
d="M415 515h130v-515h-130v279h-16l-209 -279h-130v515h130v-278h16z" />
    <glyph glyph-name="uni0439" unicode="&#x439;" horiz-adv-x="605" 
d="M308 615c-80 0 -150 30 -150 150h90c0 -50 25 -60 60 -60s60 10 60 60h90c0 -118 -70 -150 -150 -150zM415 515h130v-515h-130v279h-16l-209 -279h-130v515h130v-278h16z" />
    <glyph glyph-name="uni043A" unicode="&#x43a;" horiz-adv-x="614" 
d="M554 515l-177 -258l177 -257h-156l-135 192h-73v-192h-130v515h130v-193h73l135 193h156z" />
    <glyph glyph-name="uni043B" unicode="&#x43b;" horiz-adv-x="649" 
d="M589 515v-515h-130v385h-153c-6 -196 -42 -385 -246 -385v130c107 0 116 134 117 304v81h412z" />
    <glyph glyph-name="uni043C" unicode="&#x43c;" horiz-adv-x="744" 
d="M554 515h130v-515h-130v226h-16l-96 -160h-140l-96 160h-16v-226h-130v515h130l174 -303h16z" />
    <glyph glyph-name="uni043D" unicode="&#x43d;" horiz-adv-x="609" 
d="M419 515h130v-515h-130v184h-229v-184h-130v515h130v-201h229v201z" />
    <glyph glyph-name="uni043E" unicode="&#x43e;" horiz-adv-x="598" 
d="M299 0c-162 0 -249 111 -249 258s87 257 249 257s249 -110 249 -257s-87 -258 -249 -258zM299 130c88 0 119 28 119 128s-31 127 -119 127s-119 -27 -119 -127s31 -128 119 -128z" />
    <glyph glyph-name="uni043F" unicode="&#x43f;" horiz-adv-x="635" 
d="M575 515v-515h-130v385h-255v-385h-130v515h515z" />
    <glyph glyph-name="uni0440" unicode="&#x440;" 
d="M344 515c157 0 224 -110 224 -257s-67 -258 -224 -258c-60 0 -110 22 -144 58v-218h-130v675h130v-57c34 35 84 57 144 57zM319 130c83 0 119 25 119 128c0 102 -36 127 -119 127s-119 -25 -119 -127c0 -103 36 -128 119 -128z" />
    <glyph glyph-name="uni0441" unicode="&#x441;" horiz-adv-x="572" 
d="M50 258c0 147 77 257 237 257c148 0 225 -101 225 -210h-130c-4 47 -20 80 -93 80c-88 0 -109 -37 -109 -127s21 -128 109 -128c73 0 89 33 93 80h130c0 -109 -77 -210 -225 -210c-160 0 -237 111 -237 258z" />
    <glyph glyph-name="uni0442" unicode="&#x442;" horiz-adv-x="598" 
d="M538 515v-130h-179v-385h-130v385h-179v130h488z" />
    <glyph glyph-name="uni0443" unicode="&#x443;" 
d="M418 515h130v-675h-420v130h290v135c-30 -33 -79 -55 -139 -55c-157 0 -219 93 -219 230v235h130v-230c0 -80 36 -105 114 -105s114 25 114 105v230z" />
    <glyph glyph-name="uni0444" unicode="&#x444;" horiz-adv-x="744" 
d="M684 258c0 -141 -82 -235 -247 -254v-164h-130v164c-165 19 -247 113 -247 254c0 140 82 234 247 253v189h130v-189c165 -19 247 -113 247 -253zM190 258c0 -80 36 -114 117 -125v249c-81 -11 -117 -45 -117 -124zM437 133c81 11 117 45 117 125c0 79 -36 113 -117 124
v-249z" />
    <glyph glyph-name="uni0445" unicode="&#x445;" 
d="M568 515l-172 -257l172 -258h-159l-97 165h-6l-102 -165h-154l173 258l-173 257h154l102 -165h6l97 165h159z" />
    <glyph glyph-name="uni0447" unicode="&#x447;" horiz-adv-x="605" 
d="M415 515h130v-515h-130v155h-63c-253 0 -292 165 -292 360h130c0 -161 8 -230 152 -230h73v230z" />
    <glyph glyph-name="uni0446" unicode="&#x446;" horiz-adv-x="730" 
d="M700 130v-290h-130v160h-510v515h130v-385h240v385h130v-385h140z" />
    <glyph glyph-name="uni0448" unicode="&#x448;" horiz-adv-x="830" 
d="M640 515h130v-515h-710v515h130v-385h160v385h130v-385h160v385z" />
    <glyph glyph-name="uni0449" unicode="&#x449;" horiz-adv-x="960" 
d="M910 130v-290h-130v160h-720v515h130v-385h160v385h130v-385h160v385h130v-385h140z" />
    <glyph glyph-name="uni044C" unicode="&#x44c;" horiz-adv-x="547" 
d="M299 357c140 0 188 -82 188 -178c0 -97 -48 -179 -188 -179h-239v515h130v-158h109zM283 130c54 0 74 5 74 49c0 43 -20 48 -74 48h-93v-97h93z" />
    <glyph glyph-name="uni044A" unicode="&#x44a;" horiz-adv-x="658" 
d="M410 357c140 0 188 -82 188 -178c0 -97 -48 -179 -188 -179h-239v385h-121v130h251v-158h109zM394 130c54 0 74 5 74 49c0 43 -20 48 -74 48h-93v-97h93z" />
    <glyph glyph-name="uni044B" unicode="&#x44b;" horiz-adv-x="746" 
d="M299 357c140 0 188 -82 188 -178c0 -97 -48 -179 -188 -179h-239v515h130v-158h109zM556 515h130v-515h-130v515zM283 130c54 0 74 5 74 49c0 43 -20 48 -74 48h-93v-97h93z" />
    <glyph glyph-name="uni044D" unicode="&#x44d;" horiz-adv-x="552" 
d="M265 515c160 0 237 -110 237 -257s-77 -258 -237 -258c-148 0 -225 101 -225 210h130c4 -47 20 -80 93 -80c69 0 97 24 106 78h-129v100h129c-9 54 -37 77 -106 77c-73 0 -89 -33 -93 -80h-130c0 109 77 210 225 210z" />
    <glyph glyph-name="uni044E" unicode="&#x44e;" horiz-adv-x="835" 
d="M538 515c181 0 237 -130 237 -257c0 -128 -56 -258 -237 -258c-149 0 -214 89 -232 193h-116v-193h-130v515h130v-192h116c18 103 83 192 232 192zM538 130c88 0 107 39 107 128c0 88 -19 127 -107 127c-89 0 -107 -39 -107 -127c0 -89 18 -128 107 -128z" />
    <glyph glyph-name="uni044F" unicode="&#x44f;" horiz-adv-x="564" 
d="M305 515h199v-515h-130v163h-179v-163h-130v207h149v16c-100 11 -149 29 -149 137c0 110 49 155 240 155zM374 293v92h-99c-61 0 -80 -5 -80 -45c0 -38 19 -47 80 -47h99z" />
    <glyph glyph-name="zero" unicode="0" horiz-adv-x="694" 
d="M347 680c223 0 287 -150 287 -340s-64 -340 -287 -340s-287 150 -287 340s64 340 287 340zM504 340c0 151 -29 210 -157 210c-32 0 -58 -4 -79 -12l224 -317c9 31 12 70 12 119zM190 340c0 -151 28 -210 157 -210c32 0 58 4 79 12l-225 317c-8 -31 -11 -70 -11 -119z" />
    <glyph glyph-name="one" unicode="1" horiz-adv-x="402" 
d="M332 680v-680h-130v550h-142v130h272z" />
    <glyph glyph-name="two" unicode="2" horiz-adv-x="588" 
d="M402 244l-131 -114h247v-130h-458v130l197 163c95 75 141 111 141 177c0 52 -21 80 -104 80s-104 -30 -104 -100h-130c0 127 57 230 234 230s234 -103 234 -210c0 -93 -33 -148 -126 -226z" />
    <glyph glyph-name="three" unicode="3" horiz-adv-x="608" 
d="M360 400c90 10 188 -53 188 -190c0 -107 -72 -210 -244 -210s-244 103 -244 220h130c0 -65 29 -90 114 -90c86 0 114 25 114 90c0 68 -36 90 -106 90h-68l-45 100l147 140h-256v130h438v-130z" />
    <glyph glyph-name="four" unicode="4" horiz-adv-x="580" 
d="M390 680h130v-680h-130v222h-330v408h130v-278h200v328z" />
    <glyph glyph-name="five" unicode="5" horiz-adv-x="614" 
d="M335 460c152 0 219 -104 219 -226c0 -131 -72 -234 -239 -234c-150 0 -238 69 -255 186h134c16 -39 49 -56 116 -56c86 0 114 25 114 99c0 76 -28 101 -119 101c-60 0 -88 -12 -99 -46h-130l50 396h380v-130h-265l-15 -115c32 16 68 25 109 25z" />
    <glyph glyph-name="six" unicode="6" 
d="M339 460c162 0 219 -113 219 -230s-57 -230 -249 -230s-249 114 -249 280v100c0 114 28 300 269 300c38 0 66 0 159 -20v-128c-80 18 -119 18 -159 18c-135 0 -139 -90 -139 -150c25 33 74 60 149 60zM309 130c93 0 119 25 119 100s-26 100 -119 100s-119 -25 -119 -95
c0 -65 26 -105 119 -105z" />
    <glyph glyph-name="seven" unicode="7" horiz-adv-x="611" 
d="M60 680h491v-130l-302 -550h-149l302 550h-342v130z" />
    <glyph glyph-name="eight" unicode="8" horiz-adv-x="644" 
d="M60 190c0 82 37 147 154 162v16c-87 20 -114 69 -114 137c0 95 59 175 222 175s222 -80 222 -175c0 -68 -27 -117 -114 -137v-16c117 -15 154 -81 154 -162c0 -100 -64 -190 -262 -190s-262 90 -262 190zM230 488c0 -49 23 -63 92 -63c68 0 92 14 92 63
c0 48 -24 62 -92 62c-69 0 -92 -14 -92 -62zM190 213c0 -54 23 -83 132 -83c108 0 132 29 132 83c0 53 -24 82 -132 82c-109 0 -132 -29 -132 -82z" />
    <glyph glyph-name="nine" unicode="9" 
d="M309 680c192 0 249 -114 249 -280v-100c0 -114 -28 -300 -269 -300c-38 0 -66 0 -159 20v128c80 -18 119 -18 159 -18c135 0 139 90 139 150c-25 -33 -74 -60 -149 -60c-162 0 -219 113 -219 230s57 230 249 230zM309 350c93 0 119 25 119 95c0 65 -26 105 -119 105
s-119 -25 -119 -100s26 -100 119 -100z" />
    <glyph glyph-name="zero.dnom" horiz-adv-x="464" 
d="M232 408c134 0 172 -90 172 -204s-38 -204 -172 -204s-172 90 -172 204s38 204 172 204zM326 204c0 91 -17 126 -94 126c-19 0 -35 -2 -47 -7l134 -190c5 18 7 42 7 71zM138 204c0 -91 17 -126 94 -126c19 0 35 2 47 7l-134 190c-5 -18 -7 -42 -7 -71z" />
    <glyph glyph-name="one.dnom" horiz-adv-x="259" 
d="M223 408v-408h-78v330h-85v78h163z" />
    <glyph glyph-name="two.dnom" horiz-adv-x="383" 
d="M265 146l-78 -68h148v-78h-275v78l118 98c57 45 85 66 85 106c0 31 -13 48 -63 48c-49 0 -62 -18 -62 -60h-78c0 76 34 138 140 138c107 0 141 -62 141 -126c0 -56 -20 -89 -76 -136z" />
    <glyph glyph-name="three.dnom" horiz-adv-x="395" 
d="M240 240c54 6 113 -32 113 -114c0 -64 -43 -126 -146 -126c-104 0 -147 62 -147 132h78c0 -39 17 -54 69 -54c51 0 68 15 68 54c0 41 -22 54 -64 54h-41l-27 60l89 84h-154v78h263v-78z" />
    <glyph glyph-name="four.dnom" horiz-adv-x="372" 
d="M258 408h78v-408h-78v133h-198v245h78v-167h120v197z" />
    <glyph glyph-name="five.dnom" horiz-adv-x="398" 
d="M225 276c91 0 131 -62 131 -136c0 -78 -43 -140 -143 -140c-90 0 -143 41 -153 112h80c10 -24 30 -34 70 -34c52 0 68 15 68 59c0 46 -16 61 -71 61c-36 0 -53 -7 -59 -28h-78l30 238h228v-78h-159l-9 -69c19 10 40 15 65 15z" />
    <glyph glyph-name="six.dnom" horiz-adv-x="401" 
d="M227 276c98 0 132 -68 132 -138s-34 -138 -150 -138c-115 0 -149 68 -149 168v60c0 68 17 180 161 180c23 0 40 0 96 -12v-77c-48 11 -72 11 -96 11c-81 0 -83 -54 -83 -90c15 20 44 36 89 36zM209 78c56 0 72 15 72 60s-16 60 -72 60c-55 0 -71 -15 -71 -57
c0 -39 16 -63 71 -63z" />
    <glyph glyph-name="seven.dnom" horiz-adv-x="393" 
d="M60 408h295v-78l-182 -330h-89l181 330h-205v78z" />
    <glyph glyph-name="eight.dnom" horiz-adv-x="416" 
d="M60 114c0 49 22 88 92 97v10c-52 12 -68 41 -68 82c0 57 35 105 133 105s133 -48 133 -105c0 -41 -16 -70 -68 -82v-10c70 -9 92 -48 92 -97c0 -60 -38 -114 -157 -114s-157 54 -157 114zM162 293c0 -30 14 -38 55 -38s55 8 55 38c0 29 -14 37 -55 37s-55 -8 -55 -37z
M138 128c0 -33 14 -50 79 -50s79 17 79 50c0 32 -14 49 -79 49s-79 -17 -79 -49z" />
    <glyph glyph-name="nine.dnom" horiz-adv-x="401" 
d="M209 408c116 0 150 -68 150 -168v-60c0 -68 -17 -180 -162 -180c-22 0 -39 0 -95 12v77c48 -11 71 -11 95 -11c81 0 84 54 84 90c-15 -20 -45 -36 -90 -36c-97 0 -131 68 -131 138s34 138 149 138zM209 210c56 0 72 15 72 57c0 39 -16 63 -72 63c-55 0 -71 -15 -71 -60
s16 -60 71 -60z" />
    <glyph glyph-name="zero.numr" horiz-adv-x="464" 
d="M232 680c134 0 172 -90 172 -204s-38 -204 -172 -204s-172 90 -172 204s38 204 172 204zM326 476c0 91 -17 126 -94 126c-19 0 -35 -2 -47 -7l134 -190c5 18 7 42 7 71zM138 476c0 -91 17 -126 94 -126c19 0 35 2 47 7l-134 190c-5 -18 -7 -42 -7 -71z" />
    <glyph glyph-name="one.numr" horiz-adv-x="259" 
d="M223 680v-408h-78v330h-85v78h163z" />
    <glyph glyph-name="two.numr" horiz-adv-x="383" 
d="M265 418l-78 -68h148v-78h-275v78l118 98c57 45 85 66 85 106c0 31 -13 48 -63 48c-49 0 -62 -18 -62 -60h-78c0 76 34 138 140 138c107 0 141 -62 141 -126c0 -56 -20 -89 -76 -136z" />
    <glyph glyph-name="three.numr" horiz-adv-x="395" 
d="M240 512c54 6 113 -32 113 -114c0 -64 -43 -126 -146 -126c-104 0 -147 62 -147 132h78c0 -39 17 -54 69 -54c51 0 68 15 68 54c0 41 -22 54 -64 54h-41l-27 60l89 84h-154v78h263v-78z" />
    <glyph glyph-name="four.numr" horiz-adv-x="372" 
d="M258 680h78v-408h-78v133h-198v245h78v-167h120v197z" />
    <glyph glyph-name="five.numr" horiz-adv-x="398" 
d="M225 548c91 0 131 -62 131 -136c0 -78 -43 -140 -143 -140c-90 0 -143 41 -153 112h80c10 -24 30 -34 70 -34c52 0 68 15 68 59c0 46 -16 61 -71 61c-36 0 -53 -7 -59 -28h-78l30 238h228v-78h-159l-9 -69c19 10 40 15 65 15z" />
    <glyph glyph-name="six.numr" horiz-adv-x="401" 
d="M227 548c98 0 132 -68 132 -138s-34 -138 -150 -138c-115 0 -149 68 -149 168v60c0 68 17 180 161 180c23 0 40 0 96 -12v-77c-48 11 -72 11 -96 11c-81 0 -83 -54 -83 -90c15 20 44 36 89 36zM209 350c56 0 72 15 72 60s-16 60 -72 60c-55 0 -71 -15 -71 -57
c0 -39 16 -63 71 -63z" />
    <glyph glyph-name="seven.numr" horiz-adv-x="393" 
d="M60 680h295v-78l-182 -330h-89l181 330h-205v78z" />
    <glyph glyph-name="eight.numr" horiz-adv-x="416" 
d="M60 386c0 49 22 88 92 97v10c-52 12 -68 41 -68 82c0 57 35 105 133 105s133 -48 133 -105c0 -41 -16 -70 -68 -82v-10c70 -9 92 -48 92 -97c0 -60 -38 -114 -157 -114s-157 54 -157 114zM162 565c0 -30 14 -38 55 -38s55 8 55 38c0 29 -14 37 -55 37s-55 -8 -55 -37z
M138 400c0 -33 14 -50 79 -50s79 17 79 50c0 32 -14 49 -79 49s-79 -17 -79 -49z" />
    <glyph glyph-name="nine.numr" horiz-adv-x="401" 
d="M209 680c116 0 150 -68 150 -168v-60c0 -68 -17 -180 -162 -180c-22 0 -39 0 -95 12v77c48 -11 71 -11 95 -11c81 0 84 54 84 90c-15 -20 -45 -36 -90 -36c-97 0 -131 68 -131 138s34 138 149 138zM209 482c56 0 72 15 72 57c0 39 -16 63 -72 63c-55 0 -71 -15 -71 -60
s16 -60 71 -60z" />
    <glyph glyph-name="fraction" unicode="&#x2044;" horiz-adv-x="641" 
d="M581 680l-429 -680h-92l429 680h92z" />
    <glyph glyph-name="onehalf" unicode="&#xbd;" horiz-adv-x="892" 
d="M223 272h-78v330h-85v78h163v-408zM589 680h92l-429 -680h-92zM774 146l-78 -68h148v-78h-275v78l118 98c57 45 85 66 85 106c0 31 -13 48 -63 48c-49 0 -62 -18 -62 -60h-78c0 76 34 138 140 138c107 0 141 -62 141 -126c0 -56 -20 -89 -76 -136z" />
    <glyph glyph-name="onequarter" unicode="&#xbc;" horiz-adv-x="897" 
d="M223 272h-78v330h-85v78h163v-408zM583 680h92l-429 -680h-92zM783 408h78v-408h-78v133h-198v245h78v-167h120v197z" />
    <glyph glyph-name="threequarters" unicode="&#xbe;" horiz-adv-x="987" 
d="M353 398c0 -64 -43 -126 -146 -126c-104 0 -147 62 -147 132h78c0 -39 17 -54 69 -54c51 0 68 15 68 54c0 41 -22 54 -64 54h-41l-27 60l89 84h-154v78h263v-78l-101 -90c54 6 113 -32 113 -114zM659 680h92l-429 -680h-92zM873 408h78v-408h-78v133h-198v245h78v-167
h120v197z" />
    <glyph glyph-name="oneeighth" unicode="&#x215b;" horiz-adv-x="901" 
d="M223 272h-78v330h-85v78h163v-408zM584 680h92l-429 -680h-92zM767 211c70 -9 92 -48 92 -97c0 -60 -38 -114 -157 -114s-157 54 -157 114c0 49 22 88 92 97v10c-52 12 -68 41 -68 82c0 57 35 105 133 105s133 -48 133 -105c0 -41 -16 -70 -68 -82v-10zM702 330
c-41 0 -55 -8 -55 -37c0 -30 14 -38 55 -38s55 8 55 38c0 29 -14 37 -55 37zM702 78c65 0 79 17 79 50c0 32 -14 49 -79 49s-79 -17 -79 -49c0 -33 14 -50 79 -50z" />
    <glyph glyph-name="threeeighths" unicode="&#x215c;" horiz-adv-x="991" 
d="M353 398c0 -64 -43 -126 -146 -126c-104 0 -147 62 -147 132h78c0 -39 17 -54 69 -54c51 0 68 15 68 54c0 41 -22 54 -64 54h-41l-27 60l89 84h-154v78h263v-78l-101 -90c54 6 113 -32 113 -114zM659 680h92l-429 -680h-92zM857 211c70 -9 92 -48 92 -97
c0 -60 -38 -114 -157 -114s-157 54 -157 114c0 49 22 88 92 97v10c-52 12 -68 41 -68 82c0 57 35 105 133 105s133 -48 133 -105c0 -41 -16 -70 -68 -82v-10zM792 330c-41 0 -55 -8 -55 -37c0 -30 14 -38 55 -38s55 8 55 38c0 29 -14 37 -55 37zM792 78c65 0 79 17 79 50
c0 32 -14 49 -79 49s-79 -17 -79 -49c0 -33 14 -50 79 -50z" />
    <glyph glyph-name="fiveeighths" unicode="&#x215d;" horiz-adv-x="995" 
d="M356 412c0 -78 -43 -140 -143 -140c-90 0 -143 41 -153 112h80c10 -24 30 -34 70 -34c52 0 68 15 68 59c0 46 -16 61 -71 61c-36 0 -53 -7 -59 -28h-78l30 238h228v-78h-159l-9 -69c19 10 40 15 65 15c91 0 131 -62 131 -136zM663 680h92l-429 -680h-92zM861 211
c70 -9 92 -48 92 -97c0 -60 -38 -114 -157 -114s-157 54 -157 114c0 49 22 88 92 97v10c-52 12 -68 41 -68 82c0 57 35 105 133 105s133 -48 133 -105c0 -41 -16 -70 -68 -82v-10zM796 330c-41 0 -55 -8 -55 -37c0 -30 14 -38 55 -38s55 8 55 38c0 29 -14 37 -55 37zM796 78
c65 0 79 17 79 50c0 32 -14 49 -79 49s-79 -17 -79 -49c0 -33 14 -50 79 -50z" />
    <glyph glyph-name="seveneighths" unicode="&#x215e;" horiz-adv-x="891" 
d="M173 272h-89l181 330h-205v78h295v-78zM559 680h92l-429 -680h-92zM757 211c70 -9 92 -48 92 -97c0 -60 -38 -114 -157 -114s-157 54 -157 114c0 49 22 88 92 97v10c-52 12 -68 41 -68 82c0 57 35 105 133 105s133 -48 133 -105c0 -41 -16 -70 -68 -82v-10zM692 330
c-41 0 -55 -8 -55 -37c0 -30 14 -38 55 -38s55 8 55 38c0 29 -14 37 -55 37zM692 78c65 0 79 17 79 50c0 32 -14 49 -79 49s-79 -17 -79 -49c0 -33 14 -50 79 -50z" />
    <glyph glyph-name="asterisk" unicode="*" horiz-adv-x="456" 
d="M60 496l108 39l-108 39l50 87l88 -74l-20 113h100l-20 -113l88 74l50 -87l-107 -39l107 -39l-50 -87l-88 74l20 -113h-100l20 113l-88 -74z" />
    <glyph glyph-name="backslash" unicode="\" horiz-adv-x="471" 
d="M60 700h134l217 -860h-134z" />
    <glyph glyph-name="periodcentered" unicode="&#xb7;" horiz-adv-x="250" 
d="M60 315h130v-130h-130v130z" />
    <glyph glyph-name="bullet" unicode="&#x2022;" horiz-adv-x="360" 
d="M60 370h240v-240h-240v240z" />
    <glyph glyph-name="colon" unicode=":" horiz-adv-x="250" 
d="M60 410h130v-130h-130v130zM60 130h130v-130h-130v130z" />
    <glyph glyph-name="comma" unicode="," horiz-adv-x="250" 
d="M60 130h130v-130l-54 -130h-71l35 130h-40v130z" />
    <glyph glyph-name="ellipsis" unicode="&#x2026;" horiz-adv-x="670" 
d="M60 130h130v-130h-130v130zM270 130h130v-130h-130v130zM480 130h130v-130h-130v130z" />
    <glyph glyph-name="exclam" unicode="!" horiz-adv-x="250" 
d="M60 180v500h130v-500h-130zM60 100h130v-100h-130v100z" />
    <glyph glyph-name="exclamdown" unicode="&#xa1;" horiz-adv-x="250" 
d="M60 415v100h130v-100h-130zM60 335h130v-500h-130v500z" />
    <glyph glyph-name="numbersign" unicode="#" horiz-adv-x="921" 
d="M861 325h-170l-37 -150h126v-130h-159l-52 -205h-134l52 205h-156l-52 -205h-134l52 205h-137v130h170l37 150h-126v130h159l62 245h134l-62 -245h156l62 245h134l-62 -245h137v-130zM520 175l37 150h-156l-37 -150h156z" />
    <glyph glyph-name="period" unicode="." horiz-adv-x="250" 
d="M60 130h130v-130h-130v130z" />
    <glyph glyph-name="question" unicode="?" horiz-adv-x="628" 
d="M314 680c176 0 254 -103 254 -240c0 -141 -101 -206 -209 -186v-74h-130v166h130c51 0 79 25 79 94c0 80 -32 110 -124 110c-101 0 -124 -30 -124 -110h-130c0 137 69 240 254 240zM229 0v100h130v-100h-130z" />
    <glyph glyph-name="questiondown" unicode="&#xbf;" horiz-adv-x="628" 
d="M399 515v-100h-130v100h130zM438 75h130c0 -137 -69 -240 -254 -240c-176 0 -254 103 -254 240c0 141 101 206 209 186v74h130v-166h-130c-51 0 -79 -25 -79 -94c0 -80 32 -110 124 -110c101 0 124 30 124 110z" />
    <glyph glyph-name="quotedbl" unicode="&#x22;" horiz-adv-x="440" 
d="M60 700h130v-230h-130v230zM250 700h130v-230h-130v230z" />
    <glyph glyph-name="quotesingle" unicode="'" horiz-adv-x="250" 
d="M60 700h130v-230h-130v230z" />
    <glyph glyph-name="semicolon" unicode=";" horiz-adv-x="250" 
d="M60 410h130v-130h-130v130zM60 130h130v-130l-54 -130h-71l35 130h-40v130z" />
    <glyph glyph-name="slash" unicode="/" horiz-adv-x="471" 
d="M411 700l-217 -860h-134l217 860h134z" />
    <glyph glyph-name="underscore" unicode="_" horiz-adv-x="660" 
d="M60 -155v130h540v-130h-540z" />
    <glyph glyph-name="braceleft" unicode="{" horiz-adv-x="394" 
d="M113 32c0 85 38 188 -53 188v100c91 0 53 103 53 188c0 126 98 192 221 192v-130c-80 0 -91 -24 -91 -111c0 -58 5 -186 -83 -186v-6c88 0 83 -128 83 -186c0 -87 11 -111 91 -111v-130c-123 0 -221 66 -221 192z" />
    <glyph glyph-name="braceright" unicode="}" horiz-adv-x="394" 
d="M281 32c0 -126 -98 -192 -221 -192v130c80 0 91 24 91 111c0 58 -5 186 83 186v6c-88 0 -83 128 -83 186c0 87 -11 111 -91 111v130c123 0 221 -66 221 -192c0 -85 -38 -188 53 -188v-100c-91 0 -53 -103 -53 -188z" />
    <glyph glyph-name="bracketleft" unicode="[" horiz-adv-x="429" 
d="M369 570h-179v-600h179v-130h-309v860h309v-130z" />
    <glyph glyph-name="bracketright" unicode="]" horiz-adv-x="429" 
d="M369 700v-860h-309v130h179v600h-179v130h309z" />
    <glyph glyph-name="parenleft" unicode="(" horiz-adv-x="378" 
d="M318 700c-168 -267 -168 -593 0 -860h-145c-150 267 -150 593 0 860h145z" />
    <glyph glyph-name="parenright" unicode=")" horiz-adv-x="356" 
d="M38 700h145c150 -267 150 -593 0 -860h-145c168 267 168 593 0 860z" />
    <glyph glyph-name="emdash" unicode="&#x2014;" horiz-adv-x="1160" 
d="M60 236v130h1040v-130h-1040z" />
    <glyph glyph-name="endash" unicode="&#x2013;" horiz-adv-x="700" 
d="M60 236v130h580v-130h-580z" />
    <glyph glyph-name="hyphen" unicode="-" horiz-adv-x="502" 
d="M60 236v130h382v-130h-382z" />
    <glyph glyph-name="guillemotleft" unicode="&#xab;" horiz-adv-x="724" 
d="M405 440l-169 -191l169 -189h-174l-171 189l171 191h174zM664 440l-169 -191l169 -189h-174l-171 189l171 191h174z" />
    <glyph glyph-name="guillemotright" unicode="&#xbb;" horiz-adv-x="724" 
d="M234 440l171 -191l-171 -189h-174l169 189l-169 191h174zM493 440l171 -191l-171 -189h-174l169 189l-169 191h174z" />
    <glyph glyph-name="guilsinglleft" unicode="&#x2039;" horiz-adv-x="465" 
d="M405 440l-169 -191l169 -189h-174l-171 189l171 191h174z" />
    <glyph glyph-name="guilsinglright" unicode="&#x203a;" horiz-adv-x="465" 
d="M234 440l171 -191l-171 -189h-174l169 189l-169 191h174z" />
    <glyph glyph-name="quotedblbase" unicode="&#x201e;" horiz-adv-x="250" 
d="M60 130h130v-130l-54 -130h-71l35 130h-40v130z" />
    <glyph glyph-name="quotedblleft" unicode="&#x201c;" horiz-adv-x="440" 
d="M190 440h-130v130l54 130h71l-35 -130h40v-130zM380 440h-130v130l54 130h71l-35 -130h40v-130z" />
    <glyph glyph-name="quotedblright" unicode="&#x201d;" horiz-adv-x="440" 
d="M60 700h130v-130l-54 -130h-71l35 130h-40v130zM250 700h130v-130l-54 -130h-71l35 130h-40v130z" />
    <glyph glyph-name="quoteleft" unicode="&#x2018;" horiz-adv-x="250" 
d="M190 440h-130v130l54 130h71l-35 -130h40v-130z" />
    <glyph glyph-name="quoteright" unicode="&#x2019;" horiz-adv-x="250" 
d="M60 700h130v-130l-54 -130h-71l35 130h-40v130z" />
    <glyph glyph-name="quotesinglbase" unicode="&#x201a;" horiz-adv-x="250" 
d="M60 130h130v-130l-54 -130h-71l35 130h-40v130z" />
    <glyph glyph-name="space" unicode=" " horiz-adv-x="360" 
 />
    <glyph glyph-name="cent" unicode="&#xa2;" horiz-adv-x="652" 
d="M378 232c65 9 81 41 84 68h130c0 -100 -64 -184 -214 -198v-102h-100v103c-156 20 -218 123 -218 237s62 217 218 237v103h100v-102c150 -14 214 -98 214 -198h-130c-3 27 -19 59 -84 68v-216zM190 340c0 -64 20 -96 88 -106v212c-68 -10 -88 -42 -88 -106z" />
    <glyph glyph-name="currency" unicode="&#xa4;" horiz-adv-x="711" 
d="M597 358c0 -44 -8 -86 -24 -121l78 -78l-91 -92l-70 70c-38 -23 -85 -37 -142 -37c-50 0 -92 10 -128 29l-68 -68l-92 90l70 69c-20 40 -31 87 -31 138c0 52 11 100 32 140l-67 67l91 91l68 -68c35 17 77 27 125 27c55 0 101 -13 139 -35l72 72l92 -91l-79 -79
c17 -37 25 -79 25 -124zM348 230c88 0 119 28 119 128s-31 127 -119 127s-119 -27 -119 -127s31 -128 119 -128z" />
    <glyph glyph-name="dollar" unicode="$" horiz-adv-x="560" 
d="M500 244c0 -99 -73 -148 -170 -159v-85h-100v86c-56 6 -110 22 -165 51v141c60 -31 114 -49 165 -58v78c-127 24 -170 69 -170 150c0 90 72 141 170 149v83h100v-88c47 -7 93 -20 125 -36v-130c-40 14 -84 25 -125 33v-71c119 -24 170 -59 170 -144zM180 440
c0 -18 8 -25 50 -33v61c-35 -1 -50 -9 -50 -28zM330 214c36 3 50 15 50 34s-10 27 -50 34v-68z" />
    <glyph glyph-name="Euro" unicode="&#x20ac;" horiz-adv-x="594" 
d="M377 550c-104 0 -155 -36 -176 -109h210v-100h-221v-1c0 -16 1 -30 2 -44h219v-100h-191c27 -44 76 -66 157 -66c36 0 81 0 157 20v-130c-76 -20 -121 -20 -157 -20c-233 0 -317 170 -317 340s84 340 317 340c36 0 81 0 157 -20v-130c-76 20 -121 20 -157 20z" />
    <glyph glyph-name="sterling" unicode="&#xa3;" horiz-adv-x="576" 
d="M349 550c-102 0 -127 -39 -127 -125c0 -20 3 -40 7 -60h194v-100h-171c10 -54 7 -101 -52 -135h316v-130h-456v130c131 76 32 150 32 305c0 120 60 245 257 245c36 0 83 -3 167 -20v-130c-85 18 -131 20 -167 20z" />
    <glyph glyph-name="yen" unicode="&#xa5;" horiz-adv-x="748" 
d="M688 680l-189 -314h110v-100h-170v-60h170v-100h-170v-106h-128l-1 106h-170v100h169v60h-169v100h109l-189 314h152l159 -270h6l159 270h152z" />
    <glyph glyph-name="plus" unicode="+" horiz-adv-x="502" 
d="M442 366v-130h-126v-126h-130v126h-126v130h126v126h130v-126h126z" />
    <glyph glyph-name="minus" unicode="&#x2212;" horiz-adv-x="502" 
d="M60 236v130h382v-130h-382z" />
    <glyph glyph-name="multiply" unicode="&#xd7;" horiz-adv-x="482" 
d="M421 389l-89 -89l89 -89l-92 -92l-89 89l-89 -89l-92 92l89 89l-89 89l92 92l89 -89l89 89z" />
    <glyph glyph-name="divide" unicode="&#xf7;" horiz-adv-x="502" 
d="M186 556h130v-130h-130v130zM60 236v130h382v-130h-382zM186 177h130v-130h-130v130z" />
    <glyph glyph-name="equal" unicode="=" horiz-adv-x="502" 
d="M60 336v130h382v-130h-382zM60 136v130h382v-130h-382z" />
    <glyph glyph-name="notequal" unicode="&#x2260;" horiz-adv-x="502" 
d="M442 336h-110l-24 -70h134v-130h-181l-48 -136h-138l48 136h-63v130h110l24 70h-134v130h181l48 136h138l-48 -136h63v-130z" />
    <glyph glyph-name="greater" unicode="&#x3e;" horiz-adv-x="560" 
d="M60 418v137l440 -160v-187l-440 -161v138l310 113v6z" />
    <glyph glyph-name="less" unicode="&#x3c;" horiz-adv-x="560" 
d="M500 418l-310 -114v-6l310 -113v-138l-440 161v187l440 160v-137z" />
    <glyph glyph-name="greaterequal" unicode="&#x2265;" horiz-adv-x="560" 
d="M60 435v135l440 -77v-215l-440 -78v135l315 47v6zM60 20v130h440v-130h-440z" />
    <glyph glyph-name="lessequal" unicode="&#x2264;" horiz-adv-x="560" 
d="M500 435l-315 -47v-6l315 -47v-135l-440 78v215l440 77v-135zM500 20h-440v130h440v-130z" />
    <glyph glyph-name="plusminus" unicode="&#xb1;" horiz-adv-x="560" 
d="M345 445h155v-130h-155v-105h-130v105h-155v130h155v105h130v-105zM60 20v130h440v-130h-440z" />
    <glyph glyph-name="approxequal" unicode="&#x2248;" horiz-adv-x="624" 
d="M60 320c0 60 17 190 145 190c91 0 138 -60 189 -60c33 0 40 20 40 60h130c0 -60 -17 -190 -145 -190c-91 0 -138 60 -189 60c-33 0 -40 -20 -40 -60h-130zM60 80c0 60 17 190 145 190c91 0 138 -60 189 -60c33 0 40 20 40 60h130c0 -60 -17 -190 -145 -190
c-91 0 -138 60 -189 60c-33 0 -40 -20 -40 -60h-130z" />
    <glyph glyph-name="asciitilde" unicode="~" horiz-adv-x="624" 
d="M60 206c0 60 17 190 145 190c91 0 138 -60 189 -60c33 0 40 20 40 60h130c0 -60 -17 -190 -145 -190c-91 0 -138 60 -189 60c-33 0 -40 -20 -40 -60h-130z" />
    <glyph glyph-name="logicalnot" unicode="&#xac;" horiz-adv-x="584" 
d="M60 383h464v-285h-130v155h-334v130z" />
    <glyph glyph-name="emptyset" unicode="&#x2205;" horiz-adv-x="783" 
d="M723 573l-75 -76c37 -51 56 -115 56 -188c0 -180 -115 -309 -315 -309c-73 0 -134 17 -183 47l-74 -75l-72 71l72 73c-38 52 -58 118 -58 193c0 177 114 306 315 306c74 0 137 -18 186 -49l76 77zM204 309c0 -38 7 -72 21 -99l255 260c-25 10 -55 15 -91 15
c-131 0 -185 -69 -185 -176zM574 309c0 36 -6 67 -19 93l-254 -258c24 -9 53 -14 88 -14c130 0 185 69 185 179z" />
    <glyph glyph-name="infinity" unicode="&#x221e;" horiz-adv-x="984" 
d="M60 249c0 143 84 227 209 227c84 0 161 -62 223 -131c62 69 140 131 223 131c125 0 209 -84 209 -227s-84 -227 -209 -227c-83 0 -161 62 -223 131c-62 -69 -139 -131 -223 -131c-125 0 -209 84 -209 227zM190 249c0 -71 28 -97 79 -97c52 0 103 51 148 97
c-45 46 -96 97 -148 97c-51 0 -79 -26 -79 -97zM567 249c45 -46 96 -97 148 -97c51 0 79 26 79 97s-28 97 -79 97c-52 0 -103 -51 -148 -97z" />
    <glyph glyph-name="integral" unicode="&#x222b;" horiz-adv-x="689" 
d="M430 440l-41 -360c-14 -120 -44 -240 -216 -240c-26 0 -63 3 -113 20v130c61 -18 87 -20 113 -20c71 0 76 39 86 130l41 360c14 120 44 240 216 240c26 0 63 -3 113 -20v-130c-61 18 -87 20 -113 20c-70 0 -75 -39 -86 -130z" />
    <glyph glyph-name="product" unicode="&#x220f;" horiz-adv-x="731" 
d="M671 700v-130h-100v-730h-130v730h-151v-730h-130v730h-100v130h611z" />
    <glyph glyph-name="summation" unicode="&#x2211;" horiz-adv-x="601" 
d="M541 570h-299v-6l230 -246v-96l-230 -246v-6h299v-130h-481v130l275 297v6l-275 297v130h481v-130z" />
    <glyph glyph-name="radical" unicode="&#x221a;" horiz-adv-x="811" 
d="M507 700h244v-130h-147l-219 -730h-199l-126 376h137l83 -251h6z" />
    <glyph glyph-name="partialdiff" unicode="&#x2202;" horiz-adv-x="638" 
d="M214 717c233 -68 364 -188 364 -452c0 -185 -118 -265 -254 -265s-264 65 -264 228c0 151 95 231 218 231c54 0 102 -14 141 -38c-39 95 -122 142 -258 184zM322 135c106 0 126 49 126 106c0 63 -32 88 -137 88c-98 0 -121 -37 -121 -98c0 -60 21 -96 132 -96z" />
    <glyph glyph-name="percent" unicode="%" horiz-adv-x="1238" 
d="M284 230c-142 0 -224 88 -224 225s82 225 224 225s224 -88 224 -225s-82 -225 -224 -225zM811 680l-245 -680h-138l245 680h138zM284 360c73 0 94 30 94 95s-21 95 -94 95s-94 -30 -94 -95s21 -95 94 -95zM954 0c-142 0 -224 88 -224 225s83 225 224 225
c142 0 224 -88 224 -225s-82 -225 -224 -225zM954 130c73 0 94 30 94 95s-21 95 -94 95s-94 -30 -94 -95s21 -95 94 -95z" />
    <glyph glyph-name="perthousand" unicode="&#x2030;" horiz-adv-x="1733" 
d="M284 230c-142 0 -224 88 -224 225s82 225 224 225s224 -88 224 -225s-82 -225 -224 -225zM811 680l-245 -680h-138l245 680h138zM284 360c73 0 94 30 94 95s-21 95 -94 95s-94 -30 -94 -95s21 -95 94 -95zM954 0c-142 0 -224 88 -224 225s83 225 224 225
c142 0 224 -88 224 -225s-82 -225 -224 -225zM1449 0c-142 0 -224 88 -224 225s82 225 224 225s224 -88 224 -225s-82 -225 -224 -225zM954 130c73 0 94 30 94 95s-21 95 -94 95s-94 -30 -94 -95s21 -95 94 -95zM1449 130c73 0 94 30 94 95s-21 95 -94 95s-94 -30 -94 -95
s21 -95 94 -95z" />
    <glyph glyph-name="arrowup" unicode="&#x2191;" horiz-adv-x="700" 
d="M640 410l-92 -91l-133 133v-612h-130v612l-133 -133l-92 91l290 290z" />
    <glyph glyph-name="uni2197" unicode="&#x2197;" horiz-adv-x="774" 
d="M721 558v-410l-129 1v188l-433 -433l-92 92l433 433h-188l-1 129h410z" />
    <glyph glyph-name="arrowright" unicode="&#x2192;" horiz-adv-x="980" 
d="M920 231l-290 -290l-91 92l133 133h-612v130h612l-133 133l91 92z" />
    <glyph glyph-name="uni2198" unicode="&#x2198;" horiz-adv-x="774" 
d="M592 354l129 1v-410h-410l1 129h188l-433 433l92 92l433 -433v188z" />
    <glyph glyph-name="arrowdown" unicode="&#x2193;" horiz-adv-x="679" 
d="M548 221l92 -91l-290 -290l-290 290l92 91l133 -133v612h130v-612z" />
    <glyph glyph-name="uni2199" unicode="&#x2199;" horiz-adv-x="774" 
d="M274 74h188l1 -129h-410v410l129 -1v-188l433 433l92 -92z" />
    <glyph glyph-name="arrowleft" unicode="&#x2190;" horiz-adv-x="980" 
d="M920 296v-130h-612l133 -133l-91 -92l-290 290l290 290l91 -92l-133 -133h612z" />
    <glyph glyph-name="uni2196" unicode="&#x2196;" horiz-adv-x="774" 
d="M707 -4l-92 -92l-433 433v-188l-129 -1v410h410l-1 -129h-188z" />
    <glyph glyph-name="arrowboth" unicode="&#x2194;" horiz-adv-x="1060" 
d="M1000 231l-290 -290l-91 92l133 133h-444l133 -133l-91 -92l-290 290l290 290l91 -92l-133 -133h444l-133 133l91 92z" />
    <glyph glyph-name="arrowupdn" unicode="&#x2195;" horiz-adv-x="679" 
d="M394 30l133 133l92 -91l-290 -290l-290 290l92 91l133 -133v444l-133 -133l-92 91l290 290l290 -290l-92 -91l-133 133v-444z" />
    <glyph glyph-name="lozenge" unicode="&#x25ca;" horiz-adv-x="518" 
d="M358 652l100 -312l-100 -312h-198l-100 312l100 312h198zM262 143l59 197l-59 197h-6l-58 -197l58 -197h6z" />
    <glyph glyph-name="at" unicode="@" horiz-adv-x="934" 
d="M60 700h814v-670h-323v60c-30 -33 -59 -60 -119 -60c-117 0 -169 108 -169 230s52 230 169 230c60 0 89 -27 119 -60v60h120v-330h83v420h-574v-640h567v-120h-687v880zM467 150c62 0 84 25 84 110s-22 110 -84 110c-60 0 -84 -25 -84 -110s24 -110 84 -110z" />
    <glyph glyph-name="ampersand" unicode="&#x26;" horiz-adv-x="745" 
d="M685 295h-102v-165h102v-130h-232v60c-50 -40 -99 -60 -174 -60c-152 0 -219 98 -219 190c0 81 34 159 146 165v16c-106 13 -126 82 -126 144c0 82 57 165 194 165c36 0 64 -3 109 -20v-130c-47 17 -73 20 -99 20c-56 0 -74 -23 -74 -58c0 -42 20 -67 104 -67h139v185
h130v-185h102v-130zM453 190v105h-139c-91 0 -124 -25 -124 -85c0 -50 21 -80 94 -80c65 0 119 20 169 60z" />
    <glyph glyph-name="paragraph" unicode="&#xb6;" horiz-adv-x="700" 
d="M60 472c0 133 49 228 245 228h130v-860h-130v403c-196 0 -245 96 -245 229zM510 700h130v-860h-130v860z" />
    <glyph glyph-name="section" unicode="&#xa7;" horiz-adv-x="680" 
d="M60 290c0 53 25 91 82 116c-54 28 -71 65 -71 117c0 120 102 177 257 177c81 0 186 -24 253 -57v-132c-100 37 -202 59 -266 59c-65 0 -114 -6 -114 -53c0 -44 52 -51 154 -77c177 -44 265 -64 265 -189c0 -53 -25 -91 -82 -116c54 -28 71 -65 71 -117
c0 -121 -102 -178 -257 -178c-81 0 -186 24 -253 57v132c100 -37 202 -59 266 -59c65 0 114 6 114 54c0 44 -52 51 -154 77c-177 44 -265 56 -265 189zM190 296c0 -38 56 -46 152 -69c120 -31 148 -19 148 18c0 38 -55 45 -152 69c-119 31 -148 19 -148 -18z" />
    <glyph glyph-name="copyright" unicode="&#xa9;" horiz-adv-x="840" 
d="M60 690h720v-720h-720v720zM660 90v480h-480v-480h480zM424 140c-117 0 -190 78 -190 190s73 190 190 190c101 0 182 -61 182 -165h-120c-4 17 -10 45 -62 45c-49 0 -70 -20 -70 -70s21 -70 70 -70c52 0 58 28 62 45h120c0 -106 -81 -165 -182 -165z" />
    <glyph glyph-name="registered" unicode="&#xae;" horiz-adv-x="700" 
d="M60 700h580v-580h-580v580zM520 240v340h-340v-340h340zM350 410v-105h-105v210h210v-105h-105z" />
    <glyph glyph-name="trademark" unicode="&#x2122;" horiz-adv-x="1056" 
d="M408 700v-120h-114v-220h-120v220h-114v120h348zM996 700v-340h-120v220h-90v-220h-120v220h-90v-220h-120v340h540z" />
    <glyph glyph-name="degree" unicode="&#xb0;" horiz-adv-x="528" 
d="M264 290c-132 0 -204 78 -204 205s72 205 204 205s204 -78 204 -205s-72 -205 -204 -205zM264 410c58 0 84 25 84 85s-26 85 -84 85s-84 -25 -84 -85s26 -85 84 -85z" />
    <glyph glyph-name="bar" unicode="|" horiz-adv-x="250" 
d="M60 700h130v-860h-130v860z" />
    <glyph glyph-name="brokenbar" unicode="&#xa6;" horiz-adv-x="250" 
d="M60 700h130v-324h-130v324zM60 164h130v-324h-130v324z" />
    <glyph glyph-name="dagger" unicode="&#x2020;" horiz-adv-x="502" 
d="M442 587v-130h-126v-284h-130v284h-126v130h126v113h130v-113h126z" />
    <glyph glyph-name="daggerdbl" unicode="&#x2021;" horiz-adv-x="502" 
d="M442 467h-126v-70h126v-130h-126v-94h-130v94h-126v130h126v70h-126v130h126v103h130v-103h126v-130z" />
    <glyph glyph-name="asciicircum" unicode="^" horiz-adv-x="518" 
d="M321 368l-59 197h-6l-58 -197h-138l100 312h198l100 -312h-137z" />
    <glyph glyph-name="uni0308" unicode="&#x308;" horiz-adv-x="0" 
d="M-359 724h113v-114h-113v114zM-169 724h113v-114h-113v114z" />
    <glyph glyph-name="uni0307" unicode="&#x307;" horiz-adv-x="0" 
d="M-169 724h113v-114h-113v114z" />
    <glyph glyph-name="gravecomb" unicode="&#x300;" horiz-adv-x="0" 
d="M-171 760l91 -150h-99l-111 150h119z" />
    <glyph glyph-name="acutecomb" unicode="&#x301;" horiz-adv-x="0" 
d="M-179 760h119l-111 -150h-99z" />
    <glyph glyph-name="uni030B" unicode="&#x30b;" horiz-adv-x="0" 
d="M-359 760h119l-111 -150h-99zM-179 760h119l-111 -150h-99z" />
    <glyph glyph-name="uni0302" unicode="&#x302;" horiz-adv-x="0" 
d="M-190 770l130 -170h-115l-62 100h-6l-62 -100h-115l130 170h100z" />
    <glyph glyph-name="uni030C" unicode="&#x30c;" horiz-adv-x="0" 
d="M-175 780h115l-130 -170h-100l-130 170h115l62 -100h6z" />
    <glyph glyph-name="uni0306" unicode="&#x306;" horiz-adv-x="0" 
d="M-360 750h90c0 -50 25 -60 60 -60s60 10 60 60h90c0 -118 -70 -150 -150 -150s-150 30 -150 150z" />
    <glyph glyph-name="uni030A" unicode="&#x30a;" horiz-adv-x="0" 
d="M-195 590c-88 0 -135 57 -135 125s47 125 135 125c87 0 135 -57 135 -125s-48 -125 -135 -125zM-195 680c33 0 45 12 45 35s-12 35 -45 35s-45 -12 -45 -35s12 -35 45 -35z" />
    <glyph glyph-name="tildecomb" unicode="&#x303;" horiz-adv-x="0" 
d="M-444 620c0 60 22 150 120 150c81 0 88 -60 137 -60c30 0 37 20 37 60h90c0 -60 -17 -150 -115 -150c-81 0 -93 60 -141 60c-31 0 -38 -20 -38 -60h-90z" />
    <glyph glyph-name="uni0304" unicode="&#x304;" horiz-adv-x="0" 
d="M-372 630v90h312v-90h-312z" />
    <glyph glyph-name="uni0312" unicode="&#x312;" horiz-adv-x="0" 
d="M-56 604h-113v114l47 114h62l-31 -114h35v-114z" />
    <glyph glyph-name="uni0326" unicode="&#x326;" horiz-adv-x="0" 
d="M-160 -40h100v-80l-39 -65h-61l35 65h-35v80z" />
    <glyph glyph-name="uni0327" unicode="&#x327;" horiz-adv-x="0" 
d="M-221 -90c97 -25 112 54 28 60l25 40h50l-9 -40c117 -24 80 -156 -94 -130v70z" />
    <glyph glyph-name="uni0328" unicode="&#x328;" horiz-adv-x="0" 
d="M-60 -90v-70c-204 -30 -229 101 -138 170h70c-43 -52 -63 -115 68 -100z" />
    <glyph glyph-name="uni0335" unicode="&#x335;" horiz-adv-x="0" 
d="M-372 246v110h312v-110h-312z" />
    <glyph glyph-name="uni0336" unicode="&#x336;" horiz-adv-x="0" 
d="M-720 246v110h660v-110h-660z" />
    <glyph glyph-name="uni0337" unicode="&#x337;" horiz-adv-x="0" 
d="M-372 329l312 167v-123l-312 -167v123z" />
    <glyph glyph-name="uni0338" unicode="&#x338;" horiz-adv-x="0" 
 />
    <glyph glyph-name="acute" unicode="&#xb4;" horiz-adv-x="330" 
d="M151 760h119l-111 -150h-99z" />
    <glyph glyph-name="breve" unicode="&#x2d8;" horiz-adv-x="420" 
d="M60 750h90c0 -50 25 -60 60 -60s60 10 60 60h90c0 -118 -70 -150 -150 -150s-150 30 -150 150z" />
    <glyph glyph-name="caron" unicode="&#x2c7;" horiz-adv-x="480" 
d="M305 780h115l-130 -170h-100l-130 170h115l62 -100h6z" />
    <glyph glyph-name="cedilla" unicode="&#xb8;" horiz-adv-x="282" 
d="M60 -90c97 -25 112 54 28 60l25 40h50l-9 -40c117 -24 80 -156 -94 -130v70z" />
    <glyph glyph-name="circumflex" unicode="&#x2c6;" horiz-adv-x="470" 
d="M290 800l130 -170h-115l-62 100h-6l-62 -100h-115l130 170h100z" />
    <glyph glyph-name="dieresis" unicode="&#xa8;" horiz-adv-x="420" 
d="M61 724h113v-114h-113v114zM251 724h113v-114h-113v114z" />
    <glyph glyph-name="dotaccent" unicode="&#x2d9;" horiz-adv-x="230" 
d="M61 724h113v-114h-113v114z" />
    <glyph glyph-name="grave" unicode="`" horiz-adv-x="330" 
d="M179 760l91 -150h-99l-111 150h119z" />
    <glyph glyph-name="hungarumlaut" unicode="&#x2dd;" horiz-adv-x="510" 
d="M151 760h119l-111 -150h-99zM331 760h119l-111 -150h-99z" />
    <glyph glyph-name="macron" unicode="&#xaf;" horiz-adv-x="432" 
d="M60 630v90h312v-90h-312z" />
    <glyph glyph-name="ogonek" unicode="&#x2db;" horiz-adv-x="301" 
d="M241 -90v-70c-204 -30 -229 101 -138 170h70c-43 -52 -63 -115 68 -100z" />
    <glyph glyph-name="ring" unicode="&#x2da;" horiz-adv-x="390" 
d="M195 590c-88 0 -135 57 -135 125s47 125 135 125c87 0 135 -57 135 -125s-48 -125 -135 -125zM195 680c33 0 45 12 45 35s-12 35 -45 35s-45 -12 -45 -35s12 -35 45 -35z" />
    <glyph glyph-name="tilde" unicode="&#x2dc;" horiz-adv-x="504" 
d="M60 620c0 60 22 150 120 150c81 0 88 -60 137 -60c30 0 37 20 37 60h90c0 -60 -17 -150 -115 -150c-81 0 -93 60 -141 60c-31 0 -38 -20 -38 -60h-90z" />
    <glyph glyph-name="brevecombcy" horiz-adv-x="0" 
d="M-350 750h90c0 -50 25 -60 60 -60s60 10 60 60h90c0 -118 -70 -150 -150 -150s-150 30 -150 150z" />
    </font>
</defs>
</svg>
